<svg width="2500" height="780" viewBox="0 0 2500 780" fill="none" xmlns="http://www.w3.org/2000/svg">
<g clip-path="url(#clip0_182_3)">
<path d="M1317.56 195.979C1317.56 224.09 1294.91 246.725 1266.8 246.725C1238.69 246.725 1216.06 224.09 1216.06 195.979C1216.06 167.868 1237.92 145.233 1266.8 145.233C1295.71 146.013 1317.56 168.656 1317.56 195.979ZM1108.31 298.266V310.761C1108.31 310.761 1084.11 279.515 1032.58 279.515C947.484 279.515 881.107 344.324 881.107 434.108C881.107 523.12 946.704 588.701 1032.58 588.701C1084.89 588.701 1108.31 556.691 1108.31 556.691V569.958C1108.31 576.206 1113 580.878 1119.24 580.878H1182.48V287.3H1119.24C1113 287.323 1108.31 292.799 1108.31 298.266ZM1108.31 486.422C1096.61 503.605 1073.18 518.44 1045.08 518.44C995.109 518.44 956.844 487.21 956.844 434.108C956.844 381.015 995.109 349.784 1045.08 349.784C1072.41 349.784 1097.39 365.399 1108.31 381.795V486.422ZM1229.33 287.323H1304.28V580.901H1229.33V287.323ZM2348.96 279.508C2297.43 279.508 2273.22 310.754 2273.22 310.754V146.013H2198.27V580.901H2261.52C2267.76 580.901 2272.44 575.434 2272.44 569.966V556.698C2272.44 556.698 2296.65 588.709 2348.16 588.709C2433.28 588.709 2499.64 523.143 2499.64 434.131C2499.64 345.12 2433.28 279.508 2348.96 279.508ZM2336.46 517.652C2307.57 517.652 2284.93 502.833 2273.22 485.642V381.015C2284.93 365.399 2309.91 349.004 2336.46 349.004C2386.43 349.004 2424.69 380.235 2424.69 433.328C2424.69 486.422 2386.44 517.652 2336.46 517.652ZM2159.24 406.793V581.681H2084.27V415.373C2084.27 366.975 2068.66 347.444 2026.52 347.444C2003.89 347.444 1980.46 359.159 1965.6 376.342V580.909H1890.66V287.331H1949.98C1956.23 287.331 1960.92 292.799 1960.92 298.266V310.761C1982.78 288.111 2011.66 279.515 2040.55 279.515C2073.34 279.515 2100.68 288.899 2122.54 307.634C2149.07 329.497 2159.24 357.6 2159.24 406.793ZM1708.72 279.508C1657.2 279.508 1632.99 310.754 1632.99 310.754V146.013H1558.04V580.901H1621.27C1627.52 580.901 1632.21 575.434 1632.21 569.966V556.698C1632.21 556.698 1656.42 588.709 1707.94 588.709C1793.05 588.709 1859.41 523.143 1859.41 434.131C1860.19 345.112 1793.83 279.508 1708.72 279.508ZM1696.22 517.652C1667.34 517.652 1644.7 502.833 1632.99 485.642V381.015C1644.7 365.399 1669.69 349.004 1696.22 349.004C1746.2 349.004 1784.45 380.235 1784.45 433.328C1784.45 486.422 1746.2 517.652 1696.22 517.652ZM1493.23 279.508C1515.87 279.508 1527.58 283.423 1527.58 283.423V352.904C1527.58 352.904 1465.12 331.821 1426.09 376.335V581.673H1351.13V287.323H1414.37C1420.62 287.323 1425.29 292.791 1425.29 298.258V310.754C1439.37 294.351 1469.82 279.508 1493.23 279.508ZM714.814 554.351C710.914 544.983 707.007 534.835 703.107 526.24C696.851 512.192 690.604 498.909 685.152 486.422L684.371 485.642C630.49 368.519 572.724 249.853 511.815 132.746L509.476 128.05C503.069 115.902 496.826 103.668 490.748 91.3519C482.933 77.2887 475.133 62.4689 462.637 48.4058C437.655 17.1752 401.736 -0.0078125 363.486 -0.0078125C324.44 -0.0078125 289.309 17.1753 263.554 46.8381C251.839 60.8857 243.244 75.7211 235.444 89.7842C229.35 102.092 223.107 114.326 216.716 126.482L214.369 131.178C154.247 248.285 95.6938 366.959 41.8203 484.074L41.0326 485.626C35.5727 498.137 29.3172 511.405 23.0695 525.444C19.1696 534.04 15.2697 543.407 11.3698 553.555C1.21436 582.438 -1.91352 609.768 2.002 637.887C10.5896 696.448 49.6201 745.618 103.501 767.497C123.804 776.092 144.887 779.992 166.743 779.992C172.99 779.992 180.79 779.212 187.046 778.425C212.816 775.305 239.359 766.724 265.13 751.889C297.14 733.926 327.591 708.171 361.941 670.693C396.292 708.171 427.523 733.926 458.753 751.889C484.532 766.724 511.067 775.305 536.83 778.425C543.077 779.22 550.893 779.992 557.14 779.992C579.003 779.992 600.859 776.092 620.374 767.497C675.035 745.618 713.285 695.668 721.881 637.887C728.082 610.564 724.962 583.249 714.814 554.351ZM362.698 594.949C320.532 541.855 293.201 491.889 283.842 449.739C279.942 431.776 279.154 416.161 281.502 402.105C283.054 389.61 287.749 378.675 293.997 369.307C308.832 348.24 333.815 334.957 362.706 334.957C391.604 334.957 417.367 347.452 431.423 369.307C437.67 378.675 442.35 389.618 443.926 402.105C446.258 416.169 445.478 432.556 441.578 449.739C432.179 491.109 404.849 541.083 362.698 594.949ZM674.208 631.647C668.748 672.245 641.418 707.391 603.167 723.006C584.432 730.806 564.121 733.154 543.834 730.806C524.319 728.458 504.788 722.211 484.501 710.511C456.39 694.88 428.287 670.693 395.489 634.767C447.015 571.533 478.245 513.745 489.96 462.227C495.428 438.016 496.216 416.161 493.86 395.85C490.748 376.335 483.713 358.372 472.785 342.756C448.567 307.61 407.961 287.323 362.69 287.323C317.42 287.323 276.814 308.406 252.611 342.756C241.683 358.372 234.648 376.335 231.528 395.85C228.408 416.161 229.18 438.796 235.428 462.227C247.136 513.745 279.146 572.306 329.892 635.547C297.881 671.465 268.991 695.676 240.88 711.291C220.577 723.007 201.07 729.254 181.555 731.586C160.479 733.934 140.169 730.806 122.213 723.787C83.9629 708.171 56.6322 673.025 51.1723 632.427C48.8324 612.912 50.3846 593.396 58.2 571.534C60.5322 563.718 64.4476 555.918 68.3476 546.551C73.8153 534.055 80.0473 520.772 86.3028 507.505L87.0907 505.953C140.956 389.61 198.73 270.935 258.851 155.388L261.191 150.693C267.446 138.993 273.694 126.498 279.934 114.783C286.182 102.287 293.201 90.5718 301.797 80.4164C318.192 61.6968 340.047 51.5336 364.258 51.5336C388.469 51.5336 410.324 61.6968 426.719 80.4164C435.315 90.5952 442.334 102.311 448.582 114.783C454.838 126.498 461.085 138.993 467.317 150.693L469.665 155.388C528.87 271.415 585.876 388.551 640.653 506.733V507.513C646.909 520.024 652.369 534.063 658.616 546.574C662.516 555.926 666.424 563.726 668.764 571.542C674.996 591.821 677.336 611.352 674.208 631.647Z" fill="#8da1b9"/>
</g>
<defs>
<clipPath id="clip0_182_3">
<rect width="2500" height="780" fill="white"/>
</clipPath>
</defs>
</svg>
