<svg xmlns="http://www.w3.org/2000/svg"  viewBox="0 0 100 100" width="100px" height="100px" baseProfile="basic"><path fill="#f5905f" d="M85.198,52.779C85.085,51.766,84.229,51,83.21,51H83v0c-3.118-10.493-7.785-17.956-16.727-22.189 l0.286-2.322C62.754,24.768,58.51,23.62,54,23.189h-8c-4.51,0.43-8.754,1.578-12.559,3.299l0.286,2.322 C24.785,33.044,20.118,40.507,17,51v0h-0.21c-1.019,0-1.875,0.766-1.988,1.779L13.944,60.5h72.111L85.198,52.779z"/><rect width="77" height="6.494" x="11.5" y="60.5" fill="#fbb97f"/><path fill="#f5905f" d="M14.5,66.994c0.5,2.21,2.42,4.363,6,5.289c7.374,1.907,24.1,1.711,24.1,1.711h10.8 c0,0,16.726,0.196,24.1-1.711c3.58-0.926,5.5-3.079,6-5.289H14.5z"/><path fill="#fbb97f" d="M34.524,27.104l0.195,1.585L40.6,60.5H59.4l5.881-31.812l0.195-1.585l0.281-0.958 C62.16,24.619,58.198,23.59,54,23.189l-8,0c-4.071,0.388-7.921,1.366-11.431,2.817L34.524,27.104z"/><rect width="8" height="39.5" x="46" y="21" fill="#fdd4b2"/><g><path fill="#1f212b" d="M43.118,75.001c-4.288,0-16.667-0.146-22.869-1.75c-3.564-0.921-6.078-3.178-6.725-6.036 c-0.122-0.539,0.216-1.074,0.755-1.196c0.539-0.12,1.074,0.216,1.196,0.755c0.485,2.145,2.408,3.8,5.275,4.542 c7.16,1.852,23.672,1.679,23.838,1.679H55.4c0.177,0.001,16.689,0.173,23.85-1.679c2.867-0.742,4.79-2.397,5.275-4.542 c0.104-0.456,0.508-0.779,0.976-0.779H86c0.552,0,1,0.447,1,1c0,0.462-0.314,0.852-0.74,0.966 c-0.885,2.503-3.261,4.451-6.509,5.291c-7.417,1.92-23.674,1.751-24.362,1.743H44.6C44.489,74.995,43.959,75.001,43.118,75.001z"/><path fill="#1f212b" d="M88.766,61H11c-0.276,0-0.5-0.224-0.5-0.5S10.724,60,11,60h77.766c0.276,0,0.5,0.224,0.5,0.5 S89.042,61,88.766,61z"/><path fill="#1f212b" d="M60,60.5c-0.03,0-0.061-0.003-0.091-0.009c-0.271-0.05-0.451-0.311-0.401-0.582l1.007-5.442 c0.05-0.272,0.308-0.453,0.583-0.4c0.271,0.05,0.451,0.311,0.401,0.582l-1.007,5.442C60.447,60.332,60.237,60.5,60,60.5z"/><path fill="#1f212b" d="M61.574,52.001c-0.03,0-0.061-0.003-0.091-0.009c-0.271-0.05-0.451-0.311-0.401-0.582l4.2-22.69 c0.05-0.272,0.312-0.455,0.583-0.4c0.271,0.05,0.451,0.311,0.401,0.582l-4.2,22.69C62.021,51.833,61.81,52.001,61.574,52.001z"/><path fill="#1f212b" d="M40,60.5c-0.236,0-0.447-0.168-0.491-0.409l-2.596-14.026c-0.05-0.271,0.129-0.532,0.401-0.582 c0.271-0.051,0.532,0.128,0.583,0.4l2.596,14.026c0.05,0.271-0.129,0.532-0.401,0.582C40.06,60.497,40.03,60.5,40,60.5z"/><path fill="#1f212b" d="M36.497,41.574c-0.236,0-0.447-0.168-0.491-0.409l-0.729-3.936c-0.05-0.271,0.129-0.532,0.401-0.582 c0.271-0.053,0.533,0.128,0.583,0.4l0.729,3.936c0.05,0.271-0.129,0.532-0.401,0.582C36.557,41.571,36.527,41.574,36.497,41.574z"/><path fill="#1f212b" d="M35.212,34.633c-0.236,0-0.447-0.168-0.491-0.409l-0.985-5.322c-0.05-0.271,0.129-0.532,0.401-0.582 c0.27-0.054,0.532,0.128,0.583,0.4l0.985,5.322c0.05,0.271-0.129,0.532-0.401,0.582C35.272,34.63,35.242,34.633,35.212,34.633z"/><path fill="#1f212b" d="M55,23.189h-2V22h-6v1.189h-2V21c0-0.553,0.448-1,1-1h8c0.552,0,1,0.447,1,1V23.189z"/><path fill="#1f212b" d="M87.79,67.994H12.21c-1.219,0-2.21-0.991-2.21-2.21V61.21c0-1.219,0.991-2.21,2.21-2.21 c0.51,0,0.938-0.383,0.994-0.89l0.604-5.441c0.148-1.336,1.155-2.384,2.434-2.619c3.409-11.079,8.502-17.859,16.405-21.825 l-0.199-1.614c-0.053-0.435,0.182-0.853,0.581-1.033c4.009-1.813,8.341-2.951,12.877-3.383c0.546-0.07,1.038,0.351,1.09,0.9 s-0.351,1.038-0.901,1.09c-4.063,0.388-7.952,1.369-11.571,2.919l0.195,1.585c0.053,0.428-0.175,0.842-0.565,1.026 c-7.983,3.779-12.828,10.23-16.197,21.57C17.832,51.709,17.442,52,17,52H16.79c-0.51,0-0.938,0.383-0.994,0.89l-0.604,5.441 C15.022,59.853,13.74,61,12.21,61C12.094,61,12,61.094,12,61.21v4.574c0,0.116,0.094,0.21,0.21,0.21h75.58 c0.116,0,0.21-0.094,0.21-0.21V61.21c0-0.116-0.094-0.21-0.21-0.21c-1.53,0-2.812-1.147-2.981-2.669l-0.604-5.441 C84.147,52.383,83.72,52,83.21,52H83c-0.442,0-0.833-0.291-0.958-0.715c-3.37-11.341-8.213-17.791-16.196-21.57 c-0.39-0.185-0.618-0.599-0.565-1.026l0.195-1.585c-3.619-1.55-7.507-2.531-11.57-2.919c-0.55-0.052-0.953-0.54-0.901-1.09 s0.538-0.969,1.09-0.9c4.535,0.432,8.868,1.57,12.876,3.383c0.399,0.181,0.634,0.599,0.581,1.033l-0.199,1.614 c7.902,3.966,12.996,10.746,16.405,21.825c1.279,0.235,2.286,1.283,2.434,2.619l0.604,5.441C86.853,58.617,87.28,59,87.79,59 c1.219,0,2.21,0.991,2.21,2.21v4.574C90,67.003,89.009,67.994,87.79,67.994z"/><path fill="#1f212b" d="M19.5,60.5c-0.263,0-0.483-0.205-0.499-0.471l-0.445-7.559C18.541,52.207,18.321,52,18.057,52H15.5 c-0.276,0-0.5-0.224-0.5-0.5s0.224-0.5,0.5-0.5h2.557c0.793,0,1.451,0.62,1.497,1.412l0.445,7.559 c0.016,0.275-0.194,0.512-0.47,0.528C19.52,60.5,19.509,60.5,19.5,60.5z"/><path fill="#1f212b" d="M80.5,60.5c-0.01,0-0.02,0-0.03-0.001c-0.276-0.017-0.486-0.253-0.47-0.528l0.445-7.559 C80.492,51.62,81.149,51,81.943,51H84.5c0.276,0,0.5,0.224,0.5,0.5S84.776,52,84.5,52h-2.557c-0.264,0-0.483,0.207-0.499,0.471 l-0.445,7.559C80.983,60.295,80.763,60.5,80.5,60.5z"/><rect width="1" height="37" x="46" y="23.5" fill="#1f212b"/><rect width="1" height="37" x="53" y="23.5" fill="#1f212b"/></g></svg>