<svg xmlns="http://www.w3.org/2000/svg"  viewBox="0 0 100 100" width="100px" height="100px"><path fill="#78ccd3" d="M75.5,44h-21v-9.518c0-1.055,0.15-2.103,0.445-3.114L59,17.5h12l4.055,13.867 c0.296,1.011,0.445,2.06,0.445,3.114V44z"/><path fill="#fefdf0" d="M74.354,28H55.646l-0.701,2.461C54.65,31.5,54.5,32.578,54.5,33.662V55.5h21V33.662 c0-1.084-0.15-2.161-0.445-3.201L74.354,28z"/><path fill="#f27e97" d="M34,28.5c-6.351,0-11.5,5.149-11.5,11.5S27.649,51.5,34,51.5S45.5,46.351,45.5,40 S40.351,28.5,34,28.5z"/><path fill="#1f212b" d="M75.5,44c-0.276,0-0.5-0.224-0.5-0.5v-9.125c0-0.999-0.143-1.993-0.425-2.954L70.626,18H59.374 l-3.949,13.421C55.143,32.382,55,33.376,55,34.375V43.5c0,0.276-0.224,0.5-0.5,0.5S54,43.776,54,43.5v-9.125 c0-1.094,0.156-2.183,0.466-3.235l4.055-13.781C58.583,17.146,58.778,17,59,17h12c0.222,0,0.417,0.146,0.479,0.359l4.055,13.78 C75.844,32.192,76,33.281,76,34.375V43.5C76,43.776,75.776,44,75.5,44z"/><path fill="#8e9cb3" d="M58.5,13.5h13c0.552,0,1,0.448,1,1v2c0,0.552-0.448,1-1,1h-13c-0.552,0-1-0.448-1-1v-2 C57.5,13.948,57.948,13.5,58.5,13.5z"/><path fill="#1f212b" d="M34,52c-6.617,0-12-5.383-12-12s5.383-12,12-12s12,5.383,12,12S40.617,52,34,52z M34,29 c-6.065,0-11,4.935-11,11s4.935,11,11,11s11-4.935,11-11S40.065,29,34,29z"/><path fill="#f8e55b" d="M67.462,53.103l-21.649,8.325c-1.64,0.631-3.483-0.183-4.115-1.818l-5.985-15.469 c-0.632-1.635,0.184-3.472,1.824-4.102l21.649-8.325c1.64-0.631,3.483,0.183,4.115,1.818l5.985,15.469 C69.918,50.635,69.101,52.472,67.462,53.103z"/><path fill="#1f212b" d="M71.5,18h-13c-0.827,0-1.5-0.673-1.5-1.5v-2c0-0.827,0.673-1.5,1.5-1.5h13 c0.827,0,1.5,0.673,1.5,1.5v2C73,17.327,72.327,18,71.5,18z M58.5,14c-0.275,0-0.5,0.224-0.5,0.5v2c0,0.276,0.225,0.5,0.5,0.5h13 c0.275,0,0.5-0.224,0.5-0.5v-2c0-0.276-0.225-0.5-0.5-0.5H58.5z"/><path fill="#1f212b" d="M44.671,62.142c-1.479,0-2.875-0.895-3.438-2.352l-5.984-15.469c-0.354-0.916-0.33-1.914,0.068-2.81 c0.398-0.898,1.124-1.587,2.042-1.939l21.648-8.325c1.896-0.728,4.03,0.216,4.761,2.105l5.984,15.469 c0.354,0.914,0.33,1.91-0.067,2.806c-0.398,0.899-1.123,1.589-2.042,1.943l0,0l-21.649,8.325 C45.559,62.062,45.111,62.142,44.671,62.142z M60.33,32.001c-0.321,0-0.647,0.058-0.964,0.18l-21.648,8.325 c-0.669,0.257-1.197,0.758-1.487,1.412c-0.29,0.652-0.308,1.377-0.05,2.043l5.985,15.469c0.531,1.377,2.087,2.063,3.468,1.532 l21.649-8.325c0.669-0.258,1.197-0.76,1.487-1.415c0.289-0.651,0.306-1.376,0.049-2.04l-5.985-15.469 C62.425,32.652,61.407,32.001,60.33,32.001z M67.463,53.103h0.01H67.463z"/><path fill="#a0d2a1" d="M22.877,85c-1.342,0-2.485-1.018-2.658-2.368L16,49.812h68l-4.219,32.817 c-0.174,1.351-1.316,2.37-2.658,2.37H22.877V85z"/><path fill="#a0d2a1" d="M13.78,53C13.35,53,13,52.552,13,51.998v-6.997C13,44.45,13.349,44,13.78,44H86.22 C86.65,44,87,44.448,87,45.002v6.997C87,52.55,86.651,53,86.22,53H13.78z"/><path fill="#1f212b" d="M22.873,85.999c-1.842,0-3.409-1.392-3.646-3.24l-4.104-28.336C12.783,54.007,11,51.958,11,49.5V48 c0-2.757,2.243-5,5-5h68c2.757,0,5,2.243,5,5v1.5c0,2.458-1.783,4.507-4.123,4.923l-4.106,28.35 c-0.235,1.833-1.805,3.226-3.647,3.226H22.877C22.876,85.999,22.874,85.999,22.873,85.999z M16,45c-1.654,0-3,1.346-3,3v1.5 c0,1.654,1.346,3,3,3c0.497,0,0.919,0.365,0.989,0.856l4.219,29.132C21.319,83.357,22.036,84,22.877,84l54.246-0.001 c0.84,0,1.557-0.644,1.666-1.497l4.222-29.145C83.082,52.865,83.503,52.5,84,52.5c1.654,0,3-1.346,3-3V48c0-1.654-1.346-3-3-3H16z"/><path fill="#60bd91" d="M30.5,78.5c-1.103,0-2-0.925-2-2.063V60.563c0-1.138,0.897-2.063,2-2.063s2,0.925,2,2.063v15.873 C32.5,77.575,31.603,78.5,30.5,78.5z"/><path fill="#60bd91" d="M43.5,78.5c-1.103,0-2-0.925-2-2.063V60.563c0-1.138,0.897-2.063,2-2.063s2,0.925,2,2.063v15.873 C45.5,77.575,44.603,78.5,43.5,78.5z"/><path fill="#60bd91" d="M56.5,78.5c-1.103,0-2-0.925-2-2.063V60.563c0-1.138,0.897-2.063,2-2.063s2,0.925,2,2.063v15.873 C58.5,77.575,57.603,78.5,56.5,78.5z"/><path fill="#60bd91" d="M69.5,78.5c-1.103,0-2-0.925-2-2.063V60.563c0-1.138,0.897-2.063,2-2.063s2,0.925,2,2.063v15.873 C71.5,77.575,70.603,78.5,69.5,78.5z"/><path fill="#1f212b" d="M30.5,79c-1.379,0-2.5-1.15-2.5-2.563V60.563C28,59.15,29.121,58,30.5,58s2.5,1.15,2.5,2.563 v15.873C33,77.85,31.879,79,30.5,79z M30.5,59c-0.827,0-1.5,0.701-1.5,1.563v15.873C29,77.299,29.673,78,30.5,78 s1.5-0.701,1.5-1.563V60.563C32,59.701,31.327,59,30.5,59z"/><path fill="#1f212b" d="M43.5,79c-1.379,0-2.5-1.15-2.5-2.563V60.563C41,59.15,42.121,58,43.5,58s2.5,1.15,2.5,2.563 v15.873C46,77.85,44.879,79,43.5,79z M43.5,59c-0.827,0-1.5,0.701-1.5,1.563v15.873C42,77.299,42.673,78,43.5,78 s1.5-0.701,1.5-1.563V60.563C45,59.701,44.327,59,43.5,59z"/><path fill="#1f212b" d="M56.5,79c-1.379,0-2.5-1.15-2.5-2.563V60.563C54,59.15,55.121,58,56.5,58s2.5,1.15,2.5,2.563 v15.873C59,77.85,57.879,79,56.5,79z M56.5,59c-0.827,0-1.5,0.701-1.5,1.563v15.873C55,77.299,55.673,78,56.5,78 s1.5-0.701,1.5-1.563V60.563C58,59.701,57.327,59,56.5,59z"/><path fill="#1f212b" d="M69.5,79c-1.379,0-2.5-1.15-2.5-2.563V60.563C67,59.15,68.121,58,69.5,58s2.5,1.15,2.5,2.563 v15.873C72,77.85,70.879,79,69.5,79z M69.5,59c-0.827,0-1.5,0.701-1.5,1.563v15.873C68,77.299,68.673,78,69.5,78 s1.5-0.701,1.5-1.563V60.563C71,59.701,70.327,59,69.5,59z"/><g><path fill="#1f212b" d="M73.5,28h-11c-0.276,0-0.5-0.224-0.5-0.5s0.224-0.5,0.5-0.5h11c0.276,0,0.5,0.224,0.5,0.5 S73.776,28,73.5,28z"/></g><g><path fill="#1f212b" d="M59.5,28h-3c-0.276,0-0.5-0.224-0.5-0.5s0.224-0.5,0.5-0.5h3c0.276,0,0.5,0.224,0.5,0.5 S59.776,28,59.5,28z"/></g><g><path fill="#1f212b" d="M80.5,54h-5c-0.276,0-0.5-0.224-0.5-0.5s0.224-0.5,0.5-0.5h5c0.276,0,0.5,0.224,0.5,0.5 S80.776,54,80.5,54z"/></g><g><path fill="#1f212b" d="M72.5,54h-2c-0.276,0-0.5-0.224-0.5-0.5s0.224-0.5,0.5-0.5h2c0.276,0,0.5,0.224,0.5,0.5 S72.776,54,72.5,54z"/></g><g><path fill="#1f212b" d="M67.5,54h-48c-0.276,0-0.5-0.224-0.5-0.5s0.224-0.5,0.5-0.5h48c0.276,0,0.5,0.224,0.5,0.5 S67.776,54,67.5,54z"/></g></svg>