<?xml version="1.0" encoding="UTF-8"?>
<!DOCTYPE svg PUBLIC "-//W3C//DTD SVG 1.1//EN" "http://www.w3.org/Graphics/SVG/1.1/DTD/svg11.dtd">
<!-- Creator: CorelDRAW -->
<svg xmlns="http://www.w3.org/2000/svg" xml:space="preserve" width="84.6666mm" height="84.6666mm" version="1.1" style="shape-rendering:geometricPrecision; text-rendering:geometricPrecision; image-rendering:optimizeQuality; fill-rule:evenodd; clip-rule:evenodd"
viewBox="0 0 8466.66 8466.66"
 xmlns:xlink="http://www.w3.org/1999/xlink"
 xmlns:xodm="http://www.corel.com/coreldraw/odm/2003">
 <defs>
  <style type="text/css">
   <![CDATA[
    .fil0 {fill:white;fill-rule:nonzero}
   ]]>
  </style>
 </defs>
 <g id="Camada_x0020_1">
  <metadata id="CorelCorpID_0Corel-Layer"/>
  <path id="github.svg" class="fil0" d="M4258.84 206.92c-2226.75,0 -4030.24,1803.49 -4030.24,4030.24 0,1783.3 1153.64,3289.57 2755.69,3823.64 201.44,35.23 277.03,-85.68 277.03,-191.35 0,-95.77 -4.95,-413.17 -4.95,-750.56 -1012.56,186.4 -1274.55,-246.76 -1355.09,-473.53 -45.32,-115.96 -241.81,-473.53 -413.17,-569.3 -141.09,-75.59 -342.53,-262 -4.95,-266.95 317.4,-4.95 544.17,292.27 619.57,413.17 362.71,609.48 942.1,438.31 1173.82,332.45 35.23,-262 141.09,-438.31 256.85,-539.03 -896.79,-100.72 -1833.76,-448.4 -1833.76,-1989.89 0,-438.31 156.13,-801.02 413.18,-1083.2 -40.37,-100.72 -181.46,-513.89 40.36,-1067.96 0,0 337.58,-105.86 1108.33,413.17 322.35,-90.63 665.07,-135.95 1007.61,-135.95 342.53,0 685.06,45.32 1007.6,135.95 770.75,-523.98 1108.33,-413.17 1108.33,-413.17 221.63,554.07 80.54,967.24 40.37,1067.96 256.85,282.18 413.17,639.75 413.17,1083.2 0,1546.63 -942.11,1889.17 -1838.71,1989.89 146.04,125.85 272.08,367.66 272.08,745.61 0,539.03 -4.95,972.19 -4.95,1108.33 0,105.86 75.59,231.72 277.04,191.36 1639.17,-553.88 2744.83,-2093.28 2744.83,-3824.03 0,-2226.75 -1803.49,-4030.24 -4030.24,-4030.24l0.2 0.19z"/>
 </g>
</svg>
