<svg width="62" height="46" viewBox="0 0 62 46" fill="none" xmlns="http://www.w3.org/2000/svg">
<path d="M60.3814 9.04373L41.8348 0.599976C39.9201 3.03248 35.6811 4.72998 30.7372 4.72998C25.7934 4.72998 21.5544 3.03248 19.6397 0.599976L1.09303 9.04373C0.340493 9.39373 0.0356684 10.2337 0.407174 10.925L5.85592 20.9437C6.23695 21.635 7.15142 21.915 7.90396 21.5737L13.2955 19.15C14.3053 18.695 15.4865 19.3687 15.4865 20.41V42.6C15.4865 44.1487 16.8487 45.4 18.5347 45.4H42.9207C44.6068 45.4 45.9689 44.1487 45.9689 42.6V20.4012C45.9689 19.3687 47.1501 18.6862 48.1599 19.1412L53.5515 21.565C54.304 21.915 55.2185 21.635 55.5995 20.935L61.0578 10.925C61.4388 10.2337 61.134 9.38498 60.3814 9.04373Z" fill="black"/>
</svg>
