<svg width="62" height="50" viewBox="0 0 62 50" fill="none" xmlns="http://www.w3.org/2000/svg">
<path d="M60.6147 18.9664L58.2195 16.7662C57.558 16.1586 56.4858 16.1586 55.8243 16.7662L54.6272 17.8658L51.5684 15.0561C52.1643 12.9843 51.6065 10.6908 49.8379 9.06622L45.0485 4.66692C38.4355 -1.40753 27.7127 -1.40753 21.0986 4.66692L30.6784 9.06622V10.8891C30.6784 12.539 31.3917 14.1218 32.6629 15.2884L37.864 20.0659C39.6326 21.6905 42.1294 22.2029 44.3849 21.6555L47.4437 24.4653L46.2466 25.5648C45.5851 26.1725 45.5851 27.1573 46.2466 27.765L48.6418 29.9651C49.3034 30.5728 50.3755 30.5728 51.037 29.9651L60.6168 21.1655C61.2762 20.5589 61.2762 19.574 60.6147 18.9664ZM30.2677 17.4886C29.8761 17.1289 29.5437 16.7312 29.2251 16.3268L2.22487 39.4822C-0.481509 41.8039 -0.55454 45.7229 2.06293 48.1282C4.6804 50.5334 8.94795 50.4664 11.4755 47.9794L36.6796 23.1809C36.2605 22.898 35.8434 22.6103 35.4688 22.2661L30.2677 17.4886Z" fill="black"/>
</svg>
