<svg width="62" height="44" viewBox="0 0 62 44" fill="none" xmlns="http://www.w3.org/2000/svg">
<path d="M12.2303 0.222168C5.67866 0.222168 0.375977 5.093 0.375977 11.1111V32.8888C0.375977 38.9069 5.67866 43.7777 12.2303 43.7777C18.7819 43.7777 24.0846 38.9069 24.0846 32.8888V11.1111C24.0846 5.093 18.7819 0.222168 12.2303 0.222168ZM17.3107 21.9999H7.14986V11.1111C7.14986 8.53467 9.42546 6.44439 12.2303 6.44439C15.0351 6.44439 17.3107 8.53467 17.3107 11.1111V21.9999ZM32.0968 19.1124C31.7264 18.7722 31.1019 18.8111 30.7949 19.1902C26.0003 25.2666 26.5189 33.7833 32.4778 39.2569C38.4367 44.7305 47.7085 45.2069 54.3236 40.8027C54.747 40.5208 54.7787 39.9472 54.4083 39.6069L32.0968 19.1124ZM56.4193 17.2652C50.4604 11.7916 41.1886 11.3152 34.5735 15.7194C34.1501 16.0013 34.1184 16.5749 34.4888 16.9152L56.8003 37.4097C57.1707 37.7499 57.7952 37.7111 58.1022 37.3319C62.8968 31.2458 62.3888 22.7388 56.4193 17.2652Z" fill="black"/>
</svg>
