<svg width="61" height="50" viewBox="0 0 61 50" fill="none" xmlns="http://www.w3.org/2000/svg">
<path d="M55.2495 25H5.71546C4.19963 25 2.74588 25.5531 1.67402 26.5377C0.602163 27.5223 0 28.8576 0 30.25C0 31.6424 0.602163 32.9777 1.67402 33.9623C2.74588 34.9469 4.19963 35.5 5.71546 35.5H55.2495C56.7653 35.5 58.2191 34.9469 59.2909 33.9623C60.3628 32.9777 60.965 31.6424 60.965 30.25C60.965 28.8576 60.3628 27.5223 59.2909 26.5377C58.2191 25.5531 56.7653 25 55.2495 25ZM57.1546 39H3.81031C3.30503 39 2.82045 39.1844 2.46316 39.5126C2.10588 39.8408 1.90515 40.2859 1.90515 40.75V42.5C1.90515 44.3565 2.70804 46.137 4.13718 47.4497C5.56633 48.7625 7.50466 49.5 9.52577 49.5H51.4392C53.4603 49.5 55.3986 48.7625 56.8278 47.4497C58.2569 46.137 59.0598 44.3565 59.0598 42.5V40.75C59.0598 40.2859 58.8591 39.8408 58.5018 39.5126C58.1445 39.1844 57.6599 39 57.1546 39ZM6.98239 21.5H53.9826C58.0989 21.5 60.4863 16.6984 58.1287 13.2006C53.3443 6.1 42.8124 0.510937 30.4825 0.5C18.1537 0.510937 7.62062 6.1 2.8363 13.1995C0.476289 16.6973 2.86607 21.5 6.98239 21.5ZM45.7237 9.25C46.1005 9.25 46.4689 9.35264 46.7822 9.54493C47.0955 9.73722 47.3396 10.0105 47.4838 10.3303C47.628 10.6501 47.6658 11.0019 47.5923 11.3414C47.5188 11.6809 47.3373 11.9927 47.0709 12.2374C46.8044 12.4822 46.465 12.6489 46.0954 12.7164C45.7258 12.7839 45.3428 12.7492 44.9946 12.6168C44.6465 12.4843 44.349 12.26 44.1396 11.9722C43.9303 11.6845 43.8186 11.3461 43.8186 11C43.8186 10.5359 44.0193 10.0908 44.3766 9.76256C44.7338 9.43438 45.2184 9.25 45.7237 9.25ZM30.4825 5.75C30.8593 5.75 31.2276 5.85264 31.5409 6.04493C31.8542 6.23722 32.0984 6.51053 32.2426 6.8303C32.3868 7.15007 32.4245 7.50194 32.351 7.84141C32.2775 8.18087 32.0961 8.49269 31.8296 8.73744C31.5632 8.98218 31.2237 9.14885 30.8542 9.21637C30.4846 9.2839 30.1015 9.24924 29.7534 9.11679C29.4053 8.98434 29.1077 8.76003 28.8984 8.47225C28.6891 8.18446 28.5773 7.84612 28.5773 7.5C28.5773 7.03587 28.778 6.59075 29.1353 6.26256C29.4926 5.93438 29.9772 5.75 30.4825 5.75ZM15.2412 9.25C15.618 9.25 15.9864 9.35264 16.2997 9.54493C16.613 9.73722 16.8572 10.0105 17.0014 10.3303C17.1456 10.6501 17.1833 11.0019 17.1098 11.3414C17.0363 11.6809 16.8548 11.9927 16.5884 12.2374C16.3219 12.4822 15.9825 12.6489 15.6129 12.7164C15.2434 12.7839 14.8603 12.7492 14.5122 12.6168C14.164 12.4843 13.8665 12.26 13.6572 11.9722C13.4478 11.6845 13.3361 11.3461 13.3361 11C13.3361 10.5359 13.5368 10.0908 13.8941 9.76256C14.2514 9.43438 14.736 9.25 15.2412 9.25Z" fill="black"/>
</svg>
