<svg width="31" height="20" viewBox="0 0 31 20" fill="none" xmlns="http://www.w3.org/2000/svg">
<path d="M29.4 0.399902H0.6C-0.2835 0.399902 -1 1.1164 -1 1.9999V17.9999C-1 18.8834 -0.2835 19.5999 0.6 19.5999H29.4C30.2835 19.5999 31 18.8834 31 17.9999V1.9999C31 1.1164 30.2835 0.399902 29.4 0.399902ZM1.4 17.1999V13.9999C3.1675 13.9999 4.6 15.4324 4.6 17.1999H1.4ZM1.4 5.9999V2.7999H4.6C4.6 4.5674 3.1675 5.9999 1.4 5.9999ZM15 14.7999C12.7905 14.7999 11 12.6504 11 9.9999C11 7.3489 12.791 5.1999 15 5.1999C17.209 5.1999 19 7.3489 19 9.9999C19 12.6514 17.2085 14.7999 15 14.7999ZM28.6 17.1999H25.4C25.4 15.4324 26.8325 13.9999 28.6 13.9999V17.1999ZM28.6 5.9999C26.8325 5.9999 25.4 4.5674 25.4 2.7999H28.6V5.9999Z" fill="black"/>
</svg>
