<?xml version="1.0" encoding="UTF-8"?>
<!DOCTYPE svg PUBLIC "-//W3C//DTD SVG 1.1//EN" "http://www.w3.org/Graphics/SVG/1.1/DTD/svg11.dtd">
<!-- Creator: CorelDRAW -->
<svg xmlns="http://www.w3.org/2000/svg" xml:space="preserve" width="84.6666mm" height="84.6666mm" version="1.1" style="shape-rendering:geometricPrecision; text-rendering:geometricPrecision; image-rendering:optimizeQuality; fill-rule:evenodd; clip-rule:evenodd"
viewBox="0 0 8466.66 8466.66"
 xmlns:xlink="http://www.w3.org/1999/xlink"
 xmlns:xodm="http://www.corel.com/coreldraw/odm/2003">
 <defs>
  <style type="text/css">
   <![CDATA[
    .fil0 {fill:white;fill-rule:nonzero}
   ]]>
  </style>
 </defs>
 <g id="Camada_x0020_1">
  <metadata id="CorelCorpID_0Corel-Layer"/>
 </g>
 <g id="Camada_x0020_1_0">
  <metadata id="CorelCorpID_1Corel-Layer"/>
  <path id="linkedin.svg" class="fil0" d="M296.33 879.02c0,-312.36 259.75,-565.76 580.13,-565.76l6739.14 0c320.38,0 580.13,253.4 580.13,565.76l0 6767.69c0,312.55 -259.75,565.76 -580.13,565.76l-6739.14 0.19c-320.38,0 -580.13,-253.4 -580.13,-565.76l0 -6767.88zm2440.5 6047.05l0 -3567.17 -1185.45 0 0 3566.99 1185.45 0.18zm-592.44 -4054.38c413.31,0 670.44,-273.55 670.44,-616.14 -7.46,-350.06 -256.76,-616.14 -662.61,-616.14 -405.84,0 -671,266.64 -671,616.14 0,342.59 257.14,616.14 655.14,616.14l8.03 0zm2422.96 4054.38l0 -1992.11c0,-106.73 7.84,-213.28 39.56,-289.22 85.46,-212.73 280.45,-433.46 608.31,-433.46 428.98,0 600.28,326.91 600.28,806.65l0 1908.14 1185.45 0 0 -2046.04c0,-1096.07 -584.61,-1605.48 -1364.59,-1605.48 -629.02,0 -910.96,345.59 -1068.82,588.9l0 12.32 -8.03 0.19c2.24,-3.74 5.6,-8.77 8.03,-12.51l-0.19 -504.55 -1184.89 0c14.74,334.75 0,3566.99 0,3566.99l1184.89 0.18z"/>
 </g>
</svg>
