<svg xmlns="http://www.w3.org/2000/svg" xmlns:xlink="http://www.w3.org/1999/xlink" viewBox="0,0,256,256" width="100px" height="100px"><g fill="none" fill-rule="nonzero" stroke="none" stroke-width="1" stroke-linecap="butt" stroke-linejoin="miter" stroke-miterlimit="10" stroke-dasharray="" stroke-dashoffset="0" font-family="none" font-weight="none" font-size="none" text-anchor="none" style="mix-blend-mode: normal"><g transform="scale(2.56,2.56)"><path d="M19.251,55.283c-3.386,3.386 -5.251,7.908 -5.251,12.733c0,4.824 1.865,9.347 5.251,12.733c3.386,3.386 7.908,5.251 12.733,5.251c4.825,0 9.347,-1.865 12.734,-5.252l36.031,-36.031c3.386,-3.386 5.251,-7.908 5.251,-12.733c0,-4.824 -1.865,-9.347 -5.251,-12.733c-3.386,-3.386 -7.908,-5.251 -12.733,-5.251c-4.825,0 -9.347,1.865 -12.733,5.251z" fill="#ff488b"></path><path d="M19.251,55.283c-3.386,3.386 -5.251,7.908 -5.251,12.733c0,4.824 1.865,9.347 5.251,12.733c3.386,3.386 7.908,5.251 12.733,5.251c4.825,0 9.347,-1.865 12.734,-5.252l18.015,-18.015l-25.466,-25.466z" fill="#77b5ff"></path><g fill="#1f212b"><rect x="-0.50194" y="52.32397" transform="rotate(-45.001)" width="1" height="36.77"></rect><path d="M31.984,87c-5.092,0 -9.865,-1.969 -13.44,-5.544c-3.575,-3.576 -5.544,-8.349 -5.544,-13.44c0,-5.092 1.969,-9.865 5.544,-13.44l36.032,-36.032c3.575,-3.575 8.348,-5.544 13.44,-5.544c5.092,0 9.865,1.969 13.44,5.544c3.575,3.576 5.544,8.349 5.544,13.44c0,5.092 -1.969,9.865 -5.544,13.44l-36.031,36.031c-3.575,3.576 -8.349,5.545 -13.441,5.545zM68.016,15c-4.558,0 -8.828,1.761 -12.025,4.958l-36.033,36.032c-3.197,3.198 -4.958,7.468 -4.958,12.026c0,4.557 1.761,8.828 4.958,12.026c3.197,3.197 7.469,4.958 12.026,4.958c4.557,0 8.828,-1.761 12.026,-4.959l36.032,-36.031c3.197,-3.197 4.958,-7.468 4.958,-12.026c0,-4.557 -1.761,-8.828 -4.958,-12.026c-3.197,-3.197 -7.469,-4.958 -12.026,-4.958z"></path><path d="M59.5,23.343c-0.134,0 -0.268,-0.053 -0.365,-0.159c-0.188,-0.202 -0.178,-0.518 0.024,-0.707c0.307,-0.286 0.646,-0.57 1.039,-0.867c0.221,-0.165 0.534,-0.124 0.7,0.097c0.167,0.22 0.123,0.534 -0.097,0.701c-0.365,0.276 -0.679,0.538 -0.961,0.8c-0.095,0.091 -0.218,0.135 -0.34,0.135z"></path><path d="M62.5,21.279c-0.185,0 -0.361,-0.103 -0.448,-0.279c-0.122,-0.248 -0.021,-0.547 0.228,-0.669c0.988,-0.486 2.038,-0.843 3.121,-1.063c0.271,-0.052 0.535,0.12 0.59,0.391c0.055,0.271 -0.12,0.534 -0.391,0.589c-1,0.202 -1.968,0.532 -2.879,0.98c-0.072,0.034 -0.147,0.051 -0.221,0.051z"></path><path d="M31.984,81c-3.488,0 -6.755,-1.345 -9.197,-3.786c-2.442,-2.443 -3.787,-5.709 -3.787,-9.198c0,-3.113 1.108,-6.119 3.121,-8.463c0.18,-0.208 0.496,-0.233 0.705,-0.054c0.209,0.18 0.233,0.496 0.053,0.705c-1.857,2.163 -2.879,4.938 -2.879,7.812c0,3.222 1.241,6.237 3.494,8.491c2.254,2.252 5.269,3.493 8.49,3.493c3.221,0 6.237,-1.241 8.49,-3.495l14.359,-14.359c0.195,-0.195 0.512,-0.195 0.707,0c0.195,0.195 0.195,0.512 0,0.707l-14.358,14.359c-2.442,2.443 -5.708,3.788 -9.198,3.788z"></path><path d="M62.5,55.688c-0.128,0 -0.256,-0.049 -0.354,-0.146c-0.195,-0.195 -0.195,-0.512 0,-0.707l14.359,-14.36c2.254,-2.254 3.495,-5.269 3.495,-8.491c0,-3.222 -1.241,-6.237 -3.494,-8.491c-2.124,-2.124 -4.974,-3.356 -8.024,-3.47c-0.276,-0.01 -0.491,-0.242 -0.481,-0.518c0.011,-0.275 0.251,-0.495 0.519,-0.481c3.304,0.124 6.392,1.459 8.694,3.762c2.441,2.443 3.786,5.709 3.786,9.198c0,3.489 -1.345,6.756 -3.787,9.197l-14.359,14.36c-0.098,0.098 -0.226,0.147 -0.354,0.147z"></path></g></g></g></svg>