<svg width="2583" height="589" viewBox="0 0 2583 589" fill="none" xmlns="http://www.w3.org/2000/svg">
<g clip-path="url(#clip0_190_21)">
<path d="M0 589H592.934V0H0V589ZM380.119 45.0092C485.104 79.1541 560.611 177.709 560.87 294.371C561.128 409.222 486.914 507.518 380.119 543.991V45.0092ZM296.338 31.5581C315.214 31.5581 335.384 33.8863 352.192 37.5077C352.192 170.983 222.124 280.661 88.1773 280.661H32.0645C41.3735 143.823 155.409 31.5581 296.338 31.5581ZM88.1773 308.339C222.383 308.339 352.192 418.017 352.192 551.492C335.384 554.855 314.18 557.442 296.338 557.442C155.151 557.183 37.4947 444.66 32.0645 308.339H88.1773Z" fill="#8da1b9"/>
<path d="M791.527 346.106V309.116H914.872V261.778H791.527V192.971H922.888V145.893H741.104V344.554C741.104 394.737 762.566 429.14 812.99 436.124C814.024 436.383 815.059 436.383 815.834 436.383H816.869C822.04 436.901 827.212 437.418 832.901 437.418H926.25V390.339H833.16C817.127 389.822 791.527 382.062 791.527 346.106Z" fill="#8da1b9"/>
<path d="M962.193 283.247V437.158H1012.88V145.633H962.193V283.247Z" fill="#8da1b9"/>
<path d="M1157.68 219.613C1093.81 219.613 1045.97 263.329 1045.97 331.36V333.171C1045.97 399.65 1092.26 442.59 1158.98 442.59C1191.04 442.59 1221.04 433.795 1248.7 404.824L1218.19 375.335C1202.16 391.373 1186.39 399.65 1160.53 399.65C1123.03 399.65 1097.95 377.922 1096.4 344.294H1262.15C1262.93 336.016 1262.93 326.704 1262.93 326.704C1262.93 266.951 1221.04 219.613 1157.68 219.613ZM1097.43 308.597C1099.76 282.988 1125.88 262.294 1157.42 262.294C1187.16 262.294 1211.21 283.247 1211.21 308.597H1097.43Z" fill="#8da1b9"/>
<path d="M1405.15 264.623C1427.9 264.623 1444.71 272.901 1459.19 287.645L1490.48 255.311C1465.91 229.444 1436.69 218.838 1405.15 218.838C1340.76 218.838 1289.04 266.175 1289.04 330.844C1289.04 395.512 1340.5 443.108 1404.89 443.108C1436.44 443.108 1465.66 432.502 1490.22 406.376L1458.93 374.042C1444.45 388.787 1427.64 397.323 1404.89 397.323C1367.65 397.323 1339.21 369.127 1339.21 330.844C1339.47 292.819 1367.65 264.623 1405.15 264.623Z" fill="#8da1b9"/>
<path d="M1572.45 346.106V271.866H1618.48V226.081H1572.71V145.375H1522.03V349.21C1523.58 396.547 1545.04 428.881 1593.91 435.607C1594.95 435.866 1595.98 436.124 1597.02 436.124H1597.79C1602.96 436.642 1608.39 437.159 1613.82 437.159H1619.26V390.08H1614.08C1598.05 389.822 1572.45 382.061 1572.45 346.106Z" fill="#8da1b9"/>
<path d="M1711.05 257.639V226.34H1660.89V437.159H1711.05V326.188C1711.05 291.525 1733.29 269.538 1768.2 269.538C1776.22 269.538 1783.46 270.314 1789.15 271.608V222.977C1787.08 222.46 1779.58 221.684 1774.15 221.684C1743.89 221.942 1721.14 235.911 1711.05 257.639Z" fill="#8da1b9"/>
<path d="M1912.75 219.873C1848.36 219.873 1796.9 268.504 1796.9 331.62C1796.9 394.736 1848.1 443.367 1912.75 443.367C1976.62 443.367 2028.59 394.736 2028.59 331.62C2028.59 268.504 1976.88 219.873 1912.75 219.873ZM1912.75 397.841C1875.25 397.841 1847.07 368.869 1847.07 331.62C1847.07 294.371 1875.25 265.4 1912.75 265.4C1949.98 265.4 1978.43 294.371 1978.43 331.62C1978.43 368.869 1949.98 397.841 1912.75 397.841Z" fill="#8da1b9"/>
<path d="M2059.62 278.075V436.9H2110.31V145.375H2059.62V278.075Z" fill="#8da1b9"/>
<path d="M2292.61 348.691C2292.61 382.06 2272.96 396.287 2246.32 396.287C2219.95 396.287 2200.04 382.06 2200.04 349.209V226.08H2149.1V353.347C2149.1 413.618 2193.31 442.59 2245.81 442.59C2298.82 442.59 2343.55 413.36 2343.55 352.313V287.386V226.339H2292.61V348.691Z" fill="#8da1b9"/>
<path d="M2534.64 369.645L2502.84 325.412L2542.4 272.125L2576.02 226.34H2520.94L2474.91 289.456L2428.62 226.34H2373.8L2405.09 269.021L2446.98 325.929L2403.03 386.718L2366.56 437.418H2420.87L2474.65 362.92L2528.7 437.418H2583L2534.64 369.645Z" fill="#8da1b9"/>
</g>
<defs>
<clipPath id="clip0_190_21">
<rect width="2583" height="589" fill="white"/>
</clipPath>
</defs>
</svg>
