<svg width="2484" height="451" viewBox="0 0 2484 451" fill="none" xmlns="http://www.w3.org/2000/svg">
<path d="M2005.31 15.2369C2006.14 14.2751 2007.33 13.6831 2008.6 13.5898C2009.02 13.6162 2009.43 13.7277 2009.81 13.9174C2010.19 14.1072 2010.52 14.3714 2010.8 14.6941C2011.07 15.0168 2011.27 15.3914 2011.4 15.7953C2011.52 16.1992 2011.56 16.6241 2011.52 17.0444C2011.43 18.377 2010.84 19.627 2009.87 20.5452C1966.29 74.7507 1934.59 138.142 1934.59 226.06C1934.59 313.978 1966.44 376.039 2009.87 430.245C2010.84 431.164 2011.43 432.415 2011.52 433.749C2011.56 434.169 2011.52 434.593 2011.4 434.997C2011.27 435.401 2011.07 435.775 2010.79 436.097C2010.52 436.419 2010.19 436.683 2009.81 436.873C2009.43 437.063 2009.02 437.174 2008.6 437.2C2007.97 437.157 2007.35 436.989 2006.79 436.706C2006.22 436.423 2005.72 436.032 2005.31 435.553L1819.49 255.843C1814.78 252.302 1810.95 247.712 1808.31 242.437C1805.68 237.162 1804.31 231.346 1804.31 225.449C1804.31 219.552 1805.68 213.736 1808.31 208.461C1810.95 203.186 1814.78 198.597 1819.49 195.055L2005.31 15.2894" fill="#8da1b9"/>
<path d="M2148.07 0C2075.34 0 2046.93 103.103 2046.93 226.007C2046.93 348.909 2075.34 450.685 2148.07 450.685C2191.71 450.685 2228.92 425.094 2229.08 404.071C2229.06 401.66 2228.56 399.278 2227.59 397.069C2226.62 394.861 2225.22 392.872 2223.46 391.224C2202.75 371.262 2194.68 351.247 2194.57 333.62C2194.57 299.962 2223.67 274.902 2250.59 274.902C2287.75 274.902 2309.41 303.997 2309.41 341.636C2309.41 377.313 2294.17 407.097 2277.55 430.884C2276.93 431.77 2276.6 432.825 2276.6 433.906C2276.55 434.313 2276.58 434.725 2276.69 435.119C2276.8 435.513 2276.99 435.88 2277.25 436.198C2277.51 436.515 2277.83 436.777 2278.19 436.968C2278.56 437.158 2278.95 437.273 2279.36 437.305C2280.7 437.162 2281.93 436.517 2282.81 435.501L2468.63 255.791C2473.34 252.249 2477.17 247.659 2479.8 242.384C2482.44 237.109 2483.81 231.292 2483.81 225.395C2483.81 219.498 2482.44 213.682 2479.8 208.406C2477.17 203.131 2473.34 198.541 2468.63 195L2282.81 15.237C2281.93 14.2207 2280.7 13.5758 2279.36 13.4326C2277.66 13.4326 2276.6 14.9718 2276.6 16.8841C2276.6 17.9655 2276.94 19.0202 2277.56 19.9068C2294.07 43.6938 2309.41 73.4214 2309.41 109.102C2309.41 146.741 2287.59 175.889 2250.59 175.889C2223.67 175.889 2194.47 150.775 2194.57 117.118C2194.57 99.5433 2202.75 79.5286 2223.46 59.5138C2225.21 57.8637 2226.62 55.8746 2227.58 53.6666C2228.55 51.4586 2229.06 49.0776 2229.08 46.6672C2229.08 25.431 2191.92 0.0524351 2148.07 0.0524351M248.067 302.085C247.9 293.479 249.828 284.963 253.684 277.268C257.541 269.574 263.21 262.932 270.204 257.916C286.666 246.828 306.222 241.251 326.057 241.988C339.243 241.823 352.34 244.164 364.652 248.888V227.651C364.334 206.415 356.318 194.417 332.481 194.155C324.814 194.411 317.219 195.732 309.916 198.081C310.713 201.08 311.141 204.164 311.19 207.267C311.347 214 309.023 220.556 304.66 225.687C302.351 228.214 299.526 230.214 296.375 231.552C293.224 232.889 289.822 233.533 286.4 233.438C283.195 233.404 280.029 232.737 277.081 231.477C274.134 230.217 271.465 228.388 269.226 226.095C266.987 223.802 265.222 221.089 264.033 218.113C262.843 215.137 262.253 211.955 262.296 208.75C262.613 183.001 293.831 165.695 335.56 165.642C368.686 165.642 389.444 173.498 400.595 187.782C410.681 200.629 411.214 219.317 411.214 245.757V314.774C411.214 328.098 418.965 331.707 435.529 334.31H437.441V336.223C436.485 354.378 423.105 361.916 408.771 363.033H405.055C397.902 363.231 390.849 361.324 384.77 357.549C378.692 353.773 373.856 348.296 370.864 341.796C355.575 354.945 336.232 362.443 316.075 363.033C277.582 363.033 248.332 337.019 248.28 301.446M1430.07 354.06C1426.64 348.6 1424.29 342.524 1423.17 336.17C1421.26 338.345 1419.03 340.627 1415.58 343.918C1402.68 356.135 1385.56 362.905 1367.8 362.82C1358.7 363.118 1349.65 361.419 1341.29 357.842C1332.92 354.264 1325.44 348.896 1319.38 342.114C1302.55 321.994 1302.66 296.511 1302.66 260.303V225.421C1302.29 211.301 1297.88 206.468 1284.76 206.15C1282.99 206.163 1281.22 206.269 1279.46 206.468H1277.91L1277.33 204.981C1276.34 202.589 1275.82 200.03 1275.79 197.443C1276.22 180.562 1297.56 171.534 1310.09 168.933C1314.23 168.167 1318.41 167.706 1322.62 167.555C1326.82 167.241 1331.05 167.907 1334.95 169.5C1338.86 171.093 1342.34 173.57 1345.13 176.737C1349.95 183.576 1352.29 191.854 1351.76 200.203L1351.45 259.773C1351.45 281.752 1352.98 298.21 1357.87 308.827C1362.75 319.447 1370.24 324.277 1383.93 324.382C1389.88 324.767 1395.81 323.478 1401.05 320.664C1406.3 317.849 1410.65 313.62 1413.62 308.457C1419.24 297.698 1421.95 285.654 1421.47 273.523V225.313C1421.1 211.193 1416.64 206.363 1403.58 206.045C1401.81 206.056 1400.03 206.162 1398.27 206.363H1396.68L1396.09 204.876C1395.07 202.756 1394.42 200.475 1394.18 198.134C1394.61 181.249 1415.95 172.224 1428.53 169.624C1432.67 168.855 1436.86 168.393 1441.06 168.243C1445.28 167.934 1449.51 168.602 1453.42 170.195C1457.33 171.788 1460.83 174.263 1463.63 177.428C1468.49 184.248 1470.85 192.535 1470.32 200.894C1470.32 207.742 1469.68 219.848 1469.68 270.602C1469.68 291.838 1469.31 303.466 1469.31 306.915C1469.62 321.516 1474.61 328.151 1488.1 328.151H1494.26L1494.84 329.638C1495.82 331.961 1496.34 334.448 1496.38 336.966C1495.85 353.425 1474.46 360.059 1462.03 362.502C1458.16 363.225 1454.24 363.668 1450.3 363.828C1446.46 364.126 1442.6 363.456 1439.09 361.879C1435.57 360.302 1432.51 357.87 1430.18 354.803M753.011 267.789C752.149 240.853 761.649 214.613 779.555 194.472C788.607 185.052 799.524 177.622 811.609 172.658C823.693 167.694 836.681 165.305 849.741 165.642C860.599 165.212 871.424 167.101 881.494 171.185C891.565 175.268 900.649 181.451 908.141 189.321C920.214 202.647 926.927 219.969 926.987 237.95C927.142 247.196 924.949 256.33 920.614 264.498L920.032 265.559H803.021C804.986 299.694 826.7 323.586 864.555 323.959C873.41 324.019 882.181 322.232 890.307 318.713C898.433 315.194 905.736 310.019 911.75 303.519L913.024 301.924L914.671 303.146C917.041 304.899 918.924 307.229 920.142 309.915C921.359 312.6 921.87 315.552 921.626 318.491C921.626 338.188 898.425 363.403 847.298 363.403C834.808 363.404 822.442 360.923 810.919 356.106C799.395 351.288 788.944 344.229 780.171 335.338C771.399 326.447 764.48 315.902 759.817 304.315C755.154 292.728 752.839 280.33 753.007 267.841M1168.87 363.137C1156.28 363.294 1143.79 360.964 1132.11 356.281C1120.44 351.599 1109.8 344.655 1100.81 335.85C1091.54 326.386 1084.27 315.165 1079.41 302.847C1074.55 290.529 1072.2 277.363 1072.51 264.125C1072.33 251.188 1074.74 238.345 1079.6 226.354C1084.45 214.362 1091.66 203.463 1100.79 194.297C1109.92 185.131 1120.8 177.883 1132.77 172.98C1144.74 168.077 1157.58 165.618 1170.51 165.747C1183.3 165.404 1196.03 167.623 1207.94 172.273C1219.86 176.924 1230.73 183.911 1239.9 192.825C1253.98 206.734 1263.58 224.532 1267.46 243.934C1271.35 263.337 1269.35 283.458 1261.73 301.717C1254.1 319.976 1241.19 335.538 1224.65 346.407C1208.11 357.276 1188.71 362.955 1168.92 362.715L1168.87 363.137ZM1528.45 357.404C1520.27 355.177 1515.02 350.716 1515.07 343.974C1515.2 340.997 1515.96 338.082 1517.3 335.424L1517.72 334.468H1518.73C1523.39 333.555 1527.77 331.576 1531.53 328.685C1536.41 324.703 1538.27 319.126 1538.27 303.466V224.308C1537.9 211.036 1534.87 206.418 1523.83 206.098C1520.89 206.146 1517.95 206.466 1515.07 207.054L1513.37 207.371L1512.73 205.78C1511.65 203.096 1511.07 200.233 1511.04 197.338C1511.3 181.41 1528.56 173.446 1540.13 169.837C1544.35 168.488 1548.75 167.772 1553.19 167.712C1569.12 167.712 1577.51 179.023 1581.11 193.569C1591.42 176.632 1607.66 165.43 1624.06 165.377C1639.3 165.377 1654.59 175.358 1654.64 194.256C1654.92 201.254 1652.42 208.077 1647.68 213.239C1642.95 218.4 1636.37 221.482 1629.37 221.813C1623.73 221.943 1618.22 220.107 1613.78 216.62C1609.35 213.132 1606.26 208.211 1605.06 202.699C1596.14 205.619 1583.5 216.874 1583.4 255.791V303.568C1583.4 319.175 1585.63 324.804 1590.03 328.734C1595.34 331.721 1601.15 333.684 1607.18 334.52H1608.19L1608.62 335.476C1610.08 338.346 1610.91 341.496 1611.06 344.714C1611.06 351.084 1606.33 355.331 1598.69 357.561C1587.41 360.124 1575.84 361.177 1564.29 360.695C1552.25 361.147 1540.2 360.043 1528.45 357.404ZM960.382 357.4C952.205 355.173 946.897 350.658 946.897 343.915C946.997 340.96 947.739 338.061 949.071 335.421L949.497 334.465H950.558C955.252 333.551 959.679 331.592 963.513 328.734C968.238 324.699 970.15 319.123 970.255 303.516V199.568L942.434 198.612L941.959 197.39C940.608 194.308 939.886 190.987 939.834 187.622C939.816 185.343 940.265 183.085 941.152 180.986C942.038 178.888 943.345 176.992 944.991 175.416C946.636 173.84 948.587 172.617 950.722 171.822C952.858 171.027 955.133 170.677 957.409 170.793H969.459V159.325C969.459 131.612 974.768 115.844 981.671 105.277C992.287 88.4487 1011.35 76.876 1040.07 76.876C1076.12 76.876 1106.38 93.6521 1106.54 120.622C1106.65 124.001 1106.09 127.368 1104.88 130.526C1103.67 133.683 1101.84 136.567 1099.5 139.006C1097.16 141.446 1094.36 143.392 1091.25 144.73C1088.15 146.068 1084.81 146.77 1081.43 146.797C1075.03 146.704 1068.92 144.144 1064.37 139.652C1059.82 135.16 1057.18 129.084 1057 122.692C1057.07 117.828 1058.51 113.081 1061.15 108.997C1055.92 105.28 1049.61 103.411 1043.2 103.686C1032 103.686 1025.89 107.615 1021.97 114.037C1017.93 122.279 1016.1 131.425 1016.66 140.585V170.368H1064.44L1064.97 171.642C1066.32 174.796 1067.03 178.19 1067.04 181.623C1067.2 186.316 1065.56 190.893 1062.47 194.424C1059.37 197.954 1055.04 200.173 1050.37 200.629C1046.84 200.93 1043.29 201.054 1039.75 200.999C1031.79 200.999 1023.83 200.416 1018.09 200.311V303.093C1018.09 318.648 1020.69 324.329 1025.42 328.259C1030.14 332.188 1041.34 333.567 1044.9 334.045H1045.91L1046.34 335.054C1047.55 337.5 1048.22 340.18 1048.3 342.91C1048.3 350.026 1042.51 354.486 1033.75 356.873C1021.46 359.622 1008.86 360.783 996.269 360.328C984.179 360.787 972.08 359.679 960.274 357.033M626.867 357.033C618.743 354.803 613.487 350.343 613.543 343.601C613.685 340.645 614.443 337.752 615.769 335.106L616.195 334.15H617.256C621.95 333.235 626.378 331.276 630.211 328.416C634.936 324.382 636.901 318.808 636.953 303.201V224.308C636.583 211.036 633.449 206.418 622.46 206.098C619.516 206.146 616.584 206.466 613.7 207.054L612.003 207.371L611.365 205.78C610.229 203.053 609.634 200.131 609.613 197.177C609.878 181.249 627.132 173.446 638.813 169.837C642.966 168.495 647.296 167.779 651.66 167.712C667.588 167.712 676.082 178.862 679.799 193.195C690.415 176.472 706.664 165.43 722.854 165.325C737.878 165.325 753.328 175.25 753.381 194.152C753.653 201.184 751.122 208.037 746.344 213.204C741.565 218.371 734.93 221.429 727.897 221.705C722.28 221.836 716.794 219.997 712.392 216.506C707.989 213.015 704.948 208.093 703.796 202.594C694.771 205.567 681.973 216.77 681.816 255.683V303.466C681.816 319.073 684.151 324.703 688.824 328.629C694.086 331.663 699.895 333.629 705.918 334.415H706.926L707.404 335.372C708.822 338.215 709.619 341.327 709.742 344.501C709.742 350.874 705.017 355.121 697.318 357.404C686.007 359.984 674.403 361.056 662.81 360.59C650.772 361.046 638.726 359.939 626.972 357.299M469.402 357.299C461.277 355.069 456.077 350.609 456.077 343.866C456.194 340.913 456.935 338.018 458.252 335.372L458.677 334.415H459.738C464.432 333.502 468.859 331.543 472.693 328.685C477.418 324.647 479.383 319.073 479.435 303.466V224.308C479.01 211.036 475.931 206.418 464.889 206.098C461.946 206.146 459.014 206.466 456.129 207.054L454.43 207.371L453.791 205.78C452.655 203.053 452.06 200.131 452.039 197.177C452.305 181.249 469.559 173.446 481.24 169.837C485.375 168.498 489.687 167.782 494.034 167.712C509.962 167.712 518.456 178.862 522.173 193.143C532.789 176.472 549.038 165.43 565.231 165.322C580.252 165.322 595.755 175.253 595.81 194.204C596.084 201.237 593.553 208.091 588.774 213.259C583.995 218.426 577.36 221.484 570.327 221.76C564.711 221.882 559.229 220.039 554.828 216.549C550.427 213.059 547.383 208.142 546.222 202.646C537.197 205.619 524.403 216.822 524.295 255.738V303.516C524.295 319.126 526.577 324.755 531.303 328.685C536.563 331.724 542.374 333.691 548.4 334.471H549.461L549.886 335.427C551.324 338.265 552.138 341.378 552.274 344.557C552.274 350.929 547.496 355.177 539.797 357.459C528.486 360.04 516.882 361.111 505.289 360.642C493.252 361.096 481.207 359.99 469.454 357.351M1126.5 258.764C1126.5 310.527 1149.12 332.824 1171.2 333.089C1196.42 333.089 1214.68 310.789 1214.85 267.206C1214.85 244.428 1209.8 226.217 1201.57 214.114C1198.23 208.449 1193.5 203.736 1187.82 200.427C1182.14 197.117 1175.71 195.322 1169.13 195.213C1142.91 195.213 1126.66 218.944 1126.66 259.242M334.711 270.176C313.898 270.176 299.935 280.157 299.827 299.484C299.827 317.744 312.254 330.011 331.683 330.116C338.158 329.88 344.506 328.244 350.289 325.321C356.072 322.398 361.153 318.257 365.182 313.182V286.635C364.919 284.374 364.091 282.216 362.773 280.361C361.455 278.505 359.691 277.012 357.644 276.018C350.626 272.193 342.697 270.357 334.711 270.707M873.155 239.385C876.868 239.385 877.877 238.481 878.46 237.262C879.266 235.056 879.575 232.699 879.364 230.36C879.302 225.724 878.322 221.146 876.481 216.891C874.64 212.636 871.974 208.788 868.637 205.569C865.3 202.35 861.359 199.825 857.04 198.138C852.722 196.452 848.111 195.638 843.476 195.743C816.346 195.743 805.356 217.457 803.657 239.388H872.942L873.155 239.385ZM37.7223 329.11C14.836 305.638 0.0801451 271.342 0.0801451 228.657C-0.63867 191.958 12.6505 156.363 37.2443 129.114C48.0783 117.197 61.2597 107.651 75.9602 101.073C90.6607 94.4953 106.563 91.0289 122.667 90.8915C180.589 90.8915 221.467 131.504 221.68 166.546C221.68 185.287 209.79 199.781 193.754 199.833C186.086 199.953 178.661 197.142 172.996 191.974C170.095 189.157 167.813 185.767 166.296 182.019C164.778 178.271 164.059 174.249 164.183 170.207C164.27 166.019 165.182 161.889 166.868 158.054C168.553 154.219 170.978 150.754 174.004 147.858C166.148 134.425 151.072 123.808 127.445 123.808C107.378 123.808 90.2808 134.425 78.2824 152.583C66.284 170.738 58.9061 197.23 58.9061 228.398C58.9061 259.566 66.392 285.679 78.9209 303.941C91.4498 322.207 108.704 332.559 128.771 332.611C152.398 332.611 167.474 321.994 175.068 308.509C169 302.677 165.487 294.679 165.297 286.265C165.178 282.215 165.9 278.186 167.417 274.43C168.935 270.674 171.214 267.273 174.112 264.442C179.776 259.265 187.198 256.438 194.87 256.534C210.798 256.534 222.741 270.975 222.797 289.661C222.797 324.86 181.703 365.21 123.781 365.367C107.731 365.396 91.839 362.201 77.0472 355.972C62.2554 349.743 48.865 340.608 37.6699 329.107M37.6699 329.107C14.7866 305.641 0.0277101 271.345 0.0277101 228.66C-0.691105 191.961 12.5981 156.366 37.1918 129.117C48.0256 117.2 61.2068 107.653 75.9074 101.074C90.6079 94.4962 106.51 91.0293 122.615 90.8915C180.534 90.8915 221.415 131.504 221.624 166.546C221.624 185.287 209.734 199.781 193.701 199.833C186.033 199.953 178.609 197.142 172.943 191.974C170.042 189.157 167.76 185.767 166.243 182.019C164.726 178.271 164.007 174.249 164.131 170.207C164.218 166.019 165.13 161.889 166.815 158.054C168.5 154.219 170.926 150.754 173.952 147.858C166.148 134.425 151.072 123.808 127.445 123.808C107.378 123.808 90.2808 134.425 78.2824 152.583C66.284 170.738 58.9061 197.23 58.9061 228.398C58.9061 259.566 66.392 285.679 78.9209 303.941C91.4498 322.207 108.704 332.559 128.771 332.611C152.398 332.611 167.474 321.994 175.068 308.509C169 302.677 165.487 294.679 165.297 286.265C165.178 282.215 165.9 278.186 167.417 274.43C168.935 270.674 171.214 267.273 174.112 264.442C179.776 259.265 187.198 256.438 194.87 256.534C210.798 256.534 222.741 270.975 222.797 289.661C222.797 324.86 181.703 365.21 123.781 365.367C107.731 365.396 91.839 362.201 77.0472 355.972C62.2554 349.743 48.865 340.608 37.6699 329.107ZM37.6699 329.107C14.7866 305.641 0.0277101 271.345 0.0277101 228.66C-0.691105 191.961 12.5981 156.366 37.1918 129.117C48.0256 117.2 61.2068 107.653 75.9074 101.074C90.6079 94.4962 106.51 91.0293 122.615 90.8915C180.534 90.8915 221.415 131.504 221.624 166.546C221.624 185.287 209.734 199.781 193.701 199.833C186.033 199.953 178.609 197.142 172.943 191.974C170.042 189.157 167.76 185.767 166.243 182.019C164.726 178.271 164.007 174.249 164.131 170.207C164.218 166.019 165.13 161.889 166.815 158.054C168.5 154.219 170.926 150.754 173.952 147.858C166.148 134.425 151.072 123.808 127.445 123.808C107.378 123.808 90.2808 134.425 78.2824 152.583C66.284 170.738 58.9061 197.23 58.9061 228.398C58.9061 259.566 66.392 285.679 78.9209 303.941C91.4498 322.207 108.704 332.559 128.771 332.611C152.398 332.611 167.474 321.994 175.068 308.509C169 302.677 165.487 294.679 165.297 286.265C165.178 282.215 165.9 278.186 167.417 274.43C168.935 270.674 171.214 267.273 174.112 264.442C179.776 259.265 187.198 256.438 194.87 256.534C210.798 256.534 222.741 270.975 222.797 289.661C222.797 324.86 181.703 365.21 123.781 365.367C107.731 365.396 91.839 362.201 77.0472 355.972C62.2554 349.743 48.865 340.608 37.6699 329.107Z" fill="#8da1b9"/>
</svg>
