<svg width="2500" height="936" viewBox="0 0 2500 936" fill="none" xmlns="http://www.w3.org/2000/svg">
<g clip-path="url(#clip0_191_103)">
<path d="M63.0041 256.082L12.7711 259.454C11.8801 259.635 11.0229 259.838 10.1884 260.074C5.24851 261.541 1.9891 264.439 0.410156 268.759V613.646C1.74098 619.68 4.74099 622.77 9.41016 622.871H53.226C57.6132 622.792 60.8951 619.815 63.0831 613.962L62.8575 476.255C86.8463 479.447 109.989 480.552 132.241 479.537L192.015 614.277C192.057 614.348 192.087 614.424 192.106 614.503C194.587 619.691 198.23 622.477 203.046 622.871H251.485C257.779 621.18 260.598 616.217 259.944 608.007L194.993 460.917C213.523 452.39 227.97 441.18 238.346 427.274C258.072 401.48 262.346 367.082 251.17 324.078C251.063 323.689 250.961 323.298 250.865 322.905C238.797 287.717 212.012 265.883 170.508 257.413C140.406 253.127 104.576 252.676 63.0041 256.082ZM142.414 313.037V312.732L142.809 313.048C173.395 317.514 190.312 334.95 193.583 365.379C193.696 396.755 175.312 415.713 138.433 422.266V422.108C113.316 423.8 88.0868 423.27 62.7673 420.473L62.9252 316.713H63.4778C69.4778 312.608 95.7899 311.39 142.425 313.048M915.207 432.597L916.459 456.067L830.948 463.42C794.654 468.033 771.861 485.604 762.568 516.146C758.835 542.232 759.952 563.447 765.918 579.755C776.632 607.736 797.35 623.672 828.049 627.574C860.553 628.68 892.606 622.477 924.207 608.954C940.549 621.022 955.752 626.627 969.816 625.77C970.034 625.684 970.245 625.582 970.448 625.465C974.215 623.165 976.279 620.255 976.628 616.781L976.538 420.924C972.23 397.014 964.583 379.984 953.609 369.834C937.188 356.537 917.012 349.702 893.045 349.33C856.881 350.549 820.825 353.976 785.079 359.593C780.399 361.025 778.053 363.631 778.042 367.409L779.373 406.691C781.29 411.529 784.752 413.819 789.771 413.571C789.997 413.593 790.245 413.593 790.482 413.571C839.124 408.067 873.185 406.477 892.662 408.8C892.793 408.811 892.925 408.811 893.057 408.8C905.406 412.386 912.794 420.315 915.196 432.586M853.155 506.909H853.707C874.673 504.789 895.436 503.898 915.985 504.259V564.428C896 570.879 874.324 574.871 850.967 576.383C832.324 575.853 822.5 564.563 821.463 542.503L821.621 542.277C822.004 520.86 832.515 509.063 853.155 506.909ZM507.478 595.477C524.959 574.928 534.873 541.781 537.218 496.037C537.365 442.623 526.91 404.007 505.843 380.165C483.568 358.883 453.782 348.529 416.485 349.104C379.166 348.541 349.38 358.894 327.139 380.165C306.038 404.018 295.583 442.646 295.764 496.037C298.076 541.759 307.989 574.905 325.493 595.477C343.786 616.15 374.124 626.92 416.485 627.8C458.846 626.92 489.173 616.15 507.478 595.477ZM474.546 495.563C475.436 548.097 456.083 573.992 416.485 573.259C376.888 573.98 357.534 548.086 358.436 495.563C355.155 432.405 374.508 402.18 416.485 404.886C458.474 402.18 477.839 432.405 474.546 495.563ZM656.226 301.916C655.515 297.653 652.222 294.969 646.358 293.864L602.316 304.578C598.256 306.676 595.854 309.744 595.109 313.815V354.416H571.425C566.294 355.815 563.327 358.962 562.515 363.89V401.131C563.012 406.905 565.515 410.119 570.015 410.751H595.132V543.383C596.824 597.405 617.203 625.522 656.237 627.721C681.906 629.48 704.384 627.687 723.681 622.307C727.064 621.935 729.015 618.834 729.546 613.014C729.594 612.727 729.624 612.437 729.636 612.146L728.542 579.36C727.493 573.462 724.831 570.168 720.557 569.514C720.296 569.465 720.032 569.435 719.767 569.424L675.557 570.608C663.602 567.969 657.173 557.728 656.237 539.853V410.762H719.846C724.132 410.142 727.03 408.033 728.53 404.435V362.65C728.451 359.21 725.452 356.48 719.542 354.439H656.237V301.928M1177.18 353.582C1176.91 353.542 1176.65 353.486 1176.39 353.413C1151.36 355.33 1127.21 365.187 1103.94 382.995V363.033C1102.92 358.341 1099.88 355.623 1094.79 354.913H1052.69C1047.13 355.68 1043.69 358.973 1042.37 364.759V612.54C1043.72 617.898 1046.43 621.022 1050.49 621.935H1097.37C1100.86 620.232 1103.05 617.74 1103.94 614.424V441.518C1131.03 421.51 1154.95 411.033 1175.69 410.063C1180.28 409.386 1183.41 406.285 1185.07 400.747V362.097C1184.06 357.507 1181.43 354.665 1177.18 353.571M1226.16 354.744C1220.73 356.717 1217.81 360.89 1217.4 367.262L1277.17 594.947C1282.27 610.037 1291.58 618.969 1305.09 621.789C1310.4 622.059 1315.52 622.104 1320.43 621.935C1320.09 635.277 1314.94 646.296 1305.02 654.958C1295.97 659.909 1285.67 661.86 1274.11 660.822L1235.62 658.567C1225.47 656.875 1220.36 660.462 1220.28 669.281L1220.83 693.755C1222.14 699.698 1225.31 703.228 1230.38 704.334C1231.61 704.638 1232.88 705.033 1234.21 705.495C1256.47 709.635 1278.05 712.127 1298.91 713.007L1299.31 712.86C1320.97 713.153 1339.21 704.571 1354.01 687.101C1362.49 675.247 1368.65 663.484 1372.47 651.822L1446.64 367.804C1447.31 360.495 1444.32 356.131 1437.64 354.744H1396.32C1392.51 355.589 1389.43 358.048 1387.1 362.097L1335.31 561.462C1334.15 563.886 1332.5 563.886 1330.38 561.462L1277.87 362.492C1275.41 357.845 1272.17 355.262 1268.17 354.744H1226.16Z" fill="#01256D" fill-opacity="0.996"/>
<path d="M2373.09 149.357C2366.66 141.576 2359.51 134.423 2351.72 127.996C2327.42 134.425 2305.82 147.09 2286.94 166.027C2277.94 158.273 2268.57 150.964 2258.86 144.124C2272.73 120.914 2279.41 96.7333 2278.88 71.5942C2270.91 65.4024 2262.15 60.3185 2252.82 56.4814C2231.19 68.7972 2213.68 86.4815 2200.32 109.534C2189.26 104.395 2177.98 99.7217 2166.52 95.5266C2169.97 83.6845 2171.77 71.4589 2171.94 58.8386C2172.13 45.1243 2170.49 32.3687 2167 20.5829C2157.76 16.7032 2148.05 14.0711 2138.12 12.7559C2120.08 30.6431 2107.68 52.3198 2100.96 77.7747C2089.17 75.5946 2077.26 74.1295 2065.29 73.3874C2065.48 60.9387 2064 48.5205 2060.9 36.4627C2057.61 23.2672 2052.76 11.3687 2046.35 0.77843H2045.8L2039.3 0.31602C2036.71 0.0997233 2034.1 -0.00563421 2031.49 0.000232058C2028.71 0.000232058 2026.11 0.101734 2023.66 0.31602L2016.39 0.77843C2003.71 22.1168 1997.36 46.3198 1997.36 73.3874C1986.31 74.0641 1974.36 75.5303 1961.54 77.7747C1958.35 65.6863 1953.61 54.0603 1947.44 43.1844C1940.88 31.2408 1933.09 21.0228 1924.05 12.519C1913.11 14.2333 1903.48 16.8499 1895.18 20.3348C1888.57 44.4363 1888.72 69.5078 1895.67 95.5266C1885.12 99.3386 1873.85 104.098 1861.85 109.771C1847.98 86.4025 1830.38 68.6393 1809.05 56.4927C1806.79 57.3273 1804.38 58.4438 1801.77 59.8536C1799.55 60.9762 1797.38 62.2032 1795.27 63.5303C1794 64.0885 1792.79 64.7684 1791.66 65.5604L1783.06 71.2784C1782.55 96.1017 1789.11 120.384 1802.78 144.113C1792.56 151.782 1783.83 158.651 1776.58 164.696C1757.33 145.455 1735.64 132.801 1711.48 126.745C1703.74 133.081 1696.61 140.131 1690.19 147.801C1696.62 172.252 1709.26 193.929 1728.14 212.82C1719.12 224.087 1711.76 233.707 1706.08 241.692C1682.28 227.966 1658.17 221.369 1633.71 221.887C1630.77 225.756 1628.09 229.737 1625.64 233.865L1618.68 247.703C1630.77 269.357 1648.55 287.042 1671.97 300.756C1665.39 316.354 1661.07 327.023 1658.97 332.752C1632.43 325.816 1607.28 325.715 1583.55 332.448C1579.9 340.94 1577.29 350.605 1575.74 361.387C1593.25 379.387 1615.01 391.782 1640.98 398.56L1636.59 433.455C1624.04 433.469 1611.53 435.022 1599.35 438.079C1586.83 441.159 1574.83 446.085 1563.76 452.696C1562.56 462.622 1562.56 472.657 1563.76 482.583C1585.1 495.26 1609.29 501.609 1636.37 501.609C1636.88 507.485 1638.53 519.361 1641.29 537.203C1615.27 544.658 1593.49 557.233 1575.96 574.917C1577.53 584.978 1580.14 594.609 1583.79 603.79C1607.89 610.726 1633.03 610.647 1659.22 603.553C1663.29 614.434 1667.88 625.112 1672.98 635.549C1649.61 649.06 1631.86 666.666 1619.7 688.365C1620.89 691.636 1622.36 694.681 1624.09 697.433C1624.39 698.069 1624.76 698.674 1625.18 699.237C1628.09 704.989 1631.19 709.929 1634.47 714.113C1659.11 714.632 1683.31 708.136 1707.09 694.613C1713.97 704.358 1721.25 713.81 1728.92 722.944C1709.68 741.824 1697.02 763.433 1690.98 787.726C1697.02 795.711 1704.04 802.839 1712.01 809.098C1735.81 802.839 1757.49 790.241 1777.04 771.293C1786.2 778.988 1795.67 786.299 1805.44 793.207C1791.88 817.455 1785.36 841.636 1785.87 865.737C1793.71 871.839 1802.3 876.869 1811.7 880.839C1833.35 868.895 1851.04 851.03 1864.75 827.245C1876.54 832.297 1887.03 836.549 1896.21 839.989C1893.05 851.974 1891.39 864.306 1891.28 876.7C1891.12 890.414 1892.74 903.158 1896.21 914.955C1905.39 918.756 1915.01 921.451 1925.08 923.008C1933.94 914.357 1941.66 904.027 1948.24 892.027C1954.5 880.918 1959.07 869.47 1962 857.673C1972.75 859.974 1984.72 861.621 1997.91 862.613C1998.29 890.042 2004.7 914.256 2017.17 935.211C2017.68 935.211 2018.29 935.29 2018.97 935.436L2024.99 936H2040.09L2047.06 935.211C2059.94 914.03 2066.37 889.839 2066.37 862.613C2077.8 861.625 2089.17 859.975 2100.41 857.673C2107.72 884.233 2120.21 906 2137.89 923.008C2148.65 921.44 2158.26 918.914 2166.76 915.418C2173.7 891.327 2173.64 866.177 2166.53 840C2176.91 836.188 2187.74 831.519 2199.02 825.993C2212.88 849.564 2230.55 867.339 2252.05 879.271C2261.07 875.459 2269.67 870.53 2277.87 864.496C2278.39 839.865 2271.87 815.594 2258.3 791.639C2267.63 784.995 2276.66 777.951 2285.37 770.527C2305.14 789.609 2326.92 802.196 2350.72 808.309C2358.63 802.136 2365.77 795.04 2371.99 787.173C2365.58 763.072 2352.93 741.418 2334.04 722.166C2341.78 713.147 2348.99 703.692 2355.65 693.846C2379.38 707.346 2403.56 713.842 2428.17 713.312L2428.96 712.545C2430.73 710.143 2432.81 706.929 2435.21 702.914C2437.46 699.102 2439.35 695.82 2440.92 693.045L2441.46 691.963C2442.15 690.237 2442.75 688.771 2443.27 687.587C2431.49 666.395 2413.8 648.722 2390.23 634.534C2393.51 627.598 2397.94 617.008 2403.53 602.752C2415.48 606.045 2427.67 607.782 2440.14 607.94C2453.86 608.132 2466.61 606.496 2478.41 603C2482.05 594.496 2484.66 584.876 2486.23 574.128C2468.34 556.083 2446.66 543.688 2421.2 536.955C2423.24 526.376 2424.78 514.996 2425.82 502.85C2452.89 502.85 2477.17 496.421 2498.68 483.609C2499.92 473.741 2499.92 463.782 2498.68 453.722C2477.54 440.876 2453.36 434.459 2426.14 434.459C2425.04 422.773 2423.47 411.136 2421.44 399.575C2433.52 396.388 2445.14 391.677 2456.02 385.557C2468.02 378.948 2478.24 371.222 2486.7 362.402C2484.97 351.293 2482.39 341.673 2478.95 333.53C2455.02 326.594 2429.95 326.673 2403.76 333.767C2400.78 325.263 2396.35 314.594 2390.45 301.771C2410.08 290.493 2425.7 276.474 2437.32 259.669L2442.48 251.842C2443.01 250.805 2443.54 249.846 2444.06 248.955C2441.68 243.329 2438.8 237.931 2435.45 232.827C2434.57 230.933 2433.54 229.105 2432.39 227.357C2431.31 225.854 2430.16 224.394 2428.96 222.981C2404.32 222.451 2380.17 228.948 2356.41 242.459C2349.67 232.821 2342.55 223.453 2335.06 214.376C2354.15 195.136 2366.82 173.459 2373.09 149.357ZM2290.86 215.707C2292.42 213.26 2294.91 212.042 2298.38 212.042C2302.17 212.042 2305.37 213.598 2307.99 216.722C2347.89 258.722 2375.91 308.741 2392.01 366.801C2408.87 427.669 2410.26 489.248 2396.16 551.538C2395.33 554.808 2393.79 557.324 2391.55 559.038C2388.95 560.966 2385.88 561.406 2382.4 560.357L2326.76 544.015C2324.12 543.261 2321.82 541.6 2320.27 539.324C2318.36 536.781 2317.42 533.643 2317.62 530.47C2336.86 430.906 2314.84 345.902 2251.57 275.481C2250.08 274.537 2248.85 273.234 2247.99 271.691C2247.13 270.149 2246.67 268.416 2246.65 266.651C2246.43 262.681 2247.74 259.139 2250.56 256.004L2290.86 215.707ZM2072.33 206.087C2074.04 204.835 2077.06 204.733 2081.39 205.771C2112.64 213.226 2140.32 224.008 2164.42 238.094C2188.36 251.966 2211.41 270.508 2233.58 293.718C2237.76 298.049 2239.05 301.703 2237.49 304.669C2236.65 306.237 2233.81 308.222 2228.96 310.613L2098.29 373.839C2093.44 376.083 2089.22 376.162 2085.62 374.064C2081.97 372.192 2079.96 368.572 2079.6 363.192L2069.19 218.527C2068.66 211.793 2069.72 207.654 2072.33 206.087ZM2126.93 191.222C2096.07 180.48 2063.61 175.031 2030.94 175.106C1997.81 175.106 1965.73 180.474 1934.69 191.222C1904.91 201.459 1877.04 216.583 1852.23 235.974C1848.42 239.109 1845.06 240.745 1842.14 240.902C1839 241.275 1836.04 239.966 1833.22 236.989L1794.49 194.121C1789.49 188.019 1790.71 181.94 1798.17 175.884C1830.45 150.118 1866.74 129.819 1905.59 115.793C1945.8 101.333 1988.21 93.9493 2030.94 93.9702C2073.8 93.9702 2115.55 101.245 2156.12 115.793C2194.62 129.824 2230.5 149.854 2263.79 175.884C2271.61 181.929 2273 188.008 2267.93 194.121L2229.21 236.989C2226.43 239.966 2223.49 241.275 2220.35 240.902C2217.39 240.745 2213.93 239.098 2209.96 235.974C2184.95 216.561 2156.89 201.438 2126.93 191.222ZM2266.67 375.632C2272.2 371.831 2276.28 370.636 2278.88 372.045C2280.76 372.869 2282.33 375.485 2283.57 379.861C2292.76 410.684 2297.35 439.974 2297.35 467.73C2297.35 495.688 2292.76 524.91 2283.57 555.44C2281.85 561.327 2279.43 564.282 2276.3 564.282C2274.21 564.282 2271 562.782 2266.67 559.805L2146.49 478.444C2142.12 475.466 2139.93 471.902 2139.93 467.73C2139.93 463.602 2142.12 460.06 2146.49 457.083L2266.67 375.632ZM2030.94 374.854C2056.59 374.854 2078.64 383.989 2097.05 402.237C2115.25 420.44 2124.34 442.455 2124.34 468.271C2124.34 493.94 2115.25 515.978 2097.05 534.395C2078.63 552.587 2056.59 561.688 2030.94 561.688C2005.28 561.688 1983.33 552.587 1965.14 534.395C1946.76 515.978 1937.59 493.94 1937.59 468.271C1937.59 442.455 1946.77 420.44 1965.14 402.237C1983.33 383.989 2005.27 374.854 2030.94 374.854ZM2080.14 571.793C2080.46 566.617 2082.36 562.996 2085.86 560.91C2089.5 558.824 2093.76 558.902 2098.61 561.158L2229.21 624.372C2235.25 627.282 2238.38 630.237 2238.59 633.203C2238.59 635.459 2237.02 638.143 2233.9 641.267C2211.83 664.681 2188.75 683.335 2164.65 697.207C2140.71 710.921 2113.06 721.59 2081.71 729.203C2075.82 730.568 2072.09 729.869 2070.53 727.106C2069.49 725.369 2069.11 721.827 2069.44 716.448L2080.14 571.793ZM2302.04 579.846C2303.92 575.515 2306.52 572.673 2309.87 571.32C2312.09 570.441 2314.54 570.329 2316.83 571.004L2372.54 590.019C2375.67 591.068 2377.82 592.884 2379.04 595.489C2380.45 598.106 2380.45 601.128 2379.04 604.568C2351.28 674.989 2306 731.978 2243.2 775.523C2179.26 819.914 2108.5 842.121 2030.94 842.121C1953.26 842.121 1882.52 820.004 1818.68 775.771C1756.22 732.418 1711.13 675.542 1683.38 605.132C1682.02 601.466 1682.02 598.252 1683.38 595.489C1684.63 592.895 1686.83 591.068 1689.96 590.019L1745.59 571.004C1747.83 570.327 1750.18 570.327 1752.64 571.004C1755.76 572.245 1758.11 574.613 1759.67 578.053C1781.47 632.504 1816.91 676.557 1866 710.199C1915.82 744.361 1970.8 761.459 2030.94 761.459C2091.14 761.459 2145.95 744.621 2195.39 710.989C2243.96 678.011 2279.52 634.297 2302.04 579.846ZM1816.86 266.651C1816.84 268.417 1816.38 270.15 1815.52 271.692C1814.66 273.235 1813.43 274.537 1811.94 275.481C1748.61 345.745 1726.49 430.748 1745.59 530.47C1745.74 533.763 1744.97 536.707 1743.24 539.324C1741.63 541.646 1739.24 543.312 1736.51 544.015L1681.04 560.369C1677.43 561.406 1674.41 560.966 1671.97 559.038C1669.72 557.47 1668.16 554.966 1667.27 551.527C1653.24 489.237 1654.63 427.771 1671.42 367.105C1687.38 309.158 1715.3 259.218 1755.22 217.275C1758.34 214.139 1761.56 212.47 1764.84 212.267C1766.32 212.166 1767.81 212.427 1769.17 213.026C1770.53 213.625 1771.73 214.545 1772.65 215.707L1812.73 256.004C1815.64 259.139 1817.01 262.681 1816.86 266.651ZM1825.7 305.684C1823.98 302.921 1825.21 299.267 1829.38 294.733L1895.67 240.902C1896.69 240.226 1897.66 239.628 1898.54 239.098C1923.33 224.865 1950.99 214.117 1981.57 206.876C1985.88 205.827 1988.93 205.906 1990.64 207.102C1993.23 208.827 1994.29 213 1993.77 219.621L1983.36 364.207C1982.85 369.587 1980.84 373.23 1977.34 375.169C1975.28 376.487 1972.81 377.042 1970.38 376.737L1965.36 375.169C1965.22 374.955 1965.05 374.854 1964.89 374.854L1834.31 311.639C1829.62 309.609 1826.76 307.624 1825.7 305.684ZM1786.98 372.045C1788.85 372.045 1792.06 373.5 1796.6 376.421L1916.46 458.098C1921.01 461.075 1923.27 464.639 1923.27 468.824C1923.27 472.94 1921.1 476.493 1916.79 479.459L1796.6 560.91C1791.02 564.722 1786.93 565.918 1784.3 564.519C1782.59 563.673 1781.05 561.068 1779.7 556.681C1770.48 526.015 1765.85 496.726 1765.85 468.824C1765.85 441.079 1770.48 411.756 1779.7 380.876C1781.43 375.136 1783.84 372.192 1786.98 372.045ZM1966.93 562.951C1971.64 560.696 1975.8 560.628 1979.45 562.726C1983.11 564.801 1985.11 568.444 1985.47 573.666L1996.12 718.252C1996.64 725.042 1995.67 729.294 1993.22 731.008C1991.51 732.045 1988.39 732.045 1983.91 731.008C1952.82 723.553 1925.15 712.884 1900.9 699C1876.96 685.128 1853.89 666.485 1831.74 643.06C1827.57 638.73 1826.25 635.188 1827.82 632.425C1828.86 630.699 1831.71 628.624 1836.35 626.166L1966.93 562.951ZM1720.08 656.594L1771.33 626.955L1765.06 615.756L1714.13 645.417L1720.08 656.594ZM1857.7 746.662L1864.75 735.948C1878.26 743.391 1886.5 747.835 1889.47 749.233L1894.86 740.391C1885.9 735.857 1874.63 729.079 1861.08 720.057L1827.51 769.275C1839.71 777.339 1852.12 785.061 1864.75 792.429L1870.23 783.587L1843.39 767.707L1852.23 754.715L1870.23 765.35L1875.4 757.297C1870.02 754.331 1864.12 750.778 1857.7 746.662ZM1812.41 680.301L1805.12 687.35L1819.22 700.816L1786.67 737.03L1796.6 745.331L1827.82 708.395L1843.15 719.82L1849.41 712.004C1834.13 699.53 1821.8 688.963 1812.41 680.301ZM1784.09 646.207C1781.83 642.237 1779.86 639.214 1778.15 637.128L1728.44 670.681C1730.01 672.925 1732.45 676.207 1735.73 680.538L1765.62 659.73L1751.29 700.805C1751.82 701.324 1753.12 703.004 1755.21 705.812C1756.79 708.057 1758.25 709.703 1759.67 710.741L1805.68 671.154L1797.61 663.09L1770.08 686.797L1784.09 646.207ZM2005.98 770.831C2000.97 770.989 1997.16 770.809 1994.55 770.29L1990.4 806.436L1972.96 767.154L1962.56 764.583L1949.01 822.869C1951.62 823.545 1955.69 824.222 1961.21 824.899L1968.82 789.542L1986.17 829.354L1999.26 831.158L2005.98 770.831ZM1934.7 757.072L1908.17 746.887L1885.02 801.282C1888.66 802.934 1892.4 804.391 1896.2 805.647L1905.59 782.808L1917.25 787.726L1918.04 813.711C1921.01 814.951 1925.26 816.271 1930.79 817.624L1928.98 790.094C1932.95 789.564 1936.35 787.658 1939.17 784.376C1941.76 781.23 1943.23 777.587 1943.54 773.414L1943.86 770.053C1943.33 763.624 1940.29 759.305 1934.7 757.072ZM1929.53 766.139C1931.42 767.03 1932.44 768.327 1932.67 770.053C1932.82 770.621 1932.84 771.213 1932.75 771.792C1932.65 772.371 1932.44 772.923 1932.12 773.414C1931.57 775.321 1930.38 776.979 1928.74 778.105C1928.02 778.691 1927.15 779.073 1926.23 779.212C1925.31 779.351 1924.37 779.241 1923.5 778.895L1909.98 773.662V773.414L1914.67 760.433L1929.53 766.139ZM2139.68 752.606L2127.48 756.745L2146.98 812.459C2152.02 811.06 2156.01 809.752 2158.93 808.545L2139.68 752.606ZM2116.06 771.293L2113.4 761.673C2090.19 766.579 2074.27 769.715 2065.58 771.068L2067.16 781.23L2086.09 778.342L2094.7 826.466L2107.45 823.872L2097.29 776.312L2116.06 771.293ZM2032.27 772.399L2032.04 773.414L2012.78 830.933L2024.76 831.474L2028.12 821.064L2053.86 820.286L2057.45 830.38L2069.19 829.117L2046.35 773.414L2045.56 771.846L2032.26 772.41M2039.54 785.944L2048.93 809.56L2031.48 810.35L2039.54 785.944ZM2161.29 760.895C2161.29 764.549 2162.15 768.722 2163.87 773.414L2165.43 776.008C2167.29 779.446 2169.86 782.455 2172.96 784.839C2176.06 787.223 2179.63 788.929 2183.43 789.846C2191.4 791.876 2198.88 790.918 2205.82 786.959C2211.34 783.463 2215.32 778.951 2217.77 773.414C2219.65 769.241 2220.59 765.068 2220.59 760.895C2220.59 755.888 2219.29 751.038 2216.68 746.346C2214.71 742.987 2212.09 740.058 2208.97 737.732C2205.85 735.407 2202.3 733.734 2198.52 732.812C2194.79 731.762 2190.88 731.476 2187.04 731.972C2183.2 732.469 2179.5 733.736 2176.15 735.7C2166.6 741.226 2161.65 749.606 2161.29 760.895ZM2171.94 760.906C2171.94 753.485 2175.13 748.038 2181.55 744.553C2183.68 743.275 2186.04 742.431 2188.5 742.067C2190.95 741.703 2193.46 741.827 2195.87 742.433C2200.92 743.842 2204.85 746.786 2207.6 751.275C2209.32 754.771 2210.19 757.974 2210.19 760.906C2210.19 765.598 2208.55 769.771 2205.26 773.425C2204.36 774.824 2202.8 776.132 2200.57 777.339C2196.71 779.557 2192.21 780.381 2187.82 779.673C2183.43 779.063 2179.44 776.829 2176.63 773.414L2174.6 770.29C2173.09 767.372 2172.19 764.181 2171.94 760.906ZM2246.1 682.354C2241.77 687.203 2239.17 689.989 2238.27 690.722L2263.23 717.237L2221.92 705.034C2219.68 706.76 2216.73 708.812 2213.08 711.203L2248.67 759.406L2258.07 751.579L2236.24 722.707L2277.86 735.147C2283.03 730.827 2286.23 727.884 2287.49 726.316L2246.1 682.354ZM2327.01 678.745C2329.24 675.767 2330.55 674.019 2330.9 673.5L2271.61 654.023L2263.23 664.421L2295.56 717.237L2303.61 708.632L2297.58 699.248L2313.7 679.207L2323.86 683.121L2327.01 678.745ZM2302.82 675.846L2291.88 689.617L2278.65 667.793L2302.82 675.846ZM2360.56 624.598L2351.49 619.669L2336.86 645.406L2293.99 621.463L2288.27 631.647L2340.53 660.519L2360.56 624.598ZM2090.79 408.417C2074.15 391.94 2054.19 383.696 2030.94 383.696C2007.71 383.696 1987.86 391.929 1971.39 408.417C1954.76 424.906 1946.43 444.846 1946.43 468.271C1946.43 491.549 1954.76 511.489 1971.39 528.136C1987.86 544.602 2007.71 552.846 2030.94 552.846C2054.19 552.846 2074.15 544.613 2090.78 528.136C2107.27 511.489 2115.52 491.549 2115.52 468.271C2115.52 444.857 2107.28 424.906 2090.79 408.417ZM2072.33 434.47C2073.52 435.824 2074.65 437.29 2075.7 438.857L2077.26 441.519C2082.11 449.809 2084.53 458.729 2084.53 468.271V468.835L2082.73 482.594C2081.32 486.925 2079.41 491.166 2077.02 495.339C2072.48 503.17 2066.02 509.717 2058.25 514.365C2056.52 515.357 2054.87 516.282 2053.31 517.184L2036.96 521.324C2035.14 521.534 2033.32 521.639 2031.49 521.639H2029.68C2022.5 521.491 2015.43 519.895 2008.88 516.948L2007.3 516.158C2005.74 515.279 2004.18 514.414 2002.61 513.564C1994.25 508.305 1987.51 500.838 1983.13 491.989C1982.65 490.853 1982.2 489.702 1981.8 488.538C1979.37 482.782 1978.05 476.624 1977.88 470.38V469.613V468.824V468.271V466.478V465.372L1982.02 447.463C1982.91 445.534 1983.87 443.707 1984.92 441.981C1989.65 433.604 1996.58 426.678 2004.96 421.951C2007.36 420.598 2009.86 419.47 2012.47 418.59L2016.92 417.023L2017.94 402.474H2041.33L2042.12 416.245C2051.15 418.173 2059.04 421.985 2065.82 427.669L2071.77 433.692C2072.03 433.9 2072.22 434.162 2072.33 434.47ZM1882.66 148.354C1876.77 143.278 1871.2 142.139 1866 144.902C1853.89 151.162 1844.91 156.124 1839 159.767L1867.88 210.699L1879.54 203.425L1868.65 184.963L1879.08 179.245L1897.77 193.342L1909.73 187.85L1888.38 171.97C1889.62 169.737 1890.33 167.651 1890.49 165.722C1891.01 159.293 1888.4 153.508 1882.66 148.354ZM1877.51 165.722C1877.55 166.504 1877.38 167.284 1877.01 167.973C1876.64 168.662 1876.08 169.234 1875.4 169.624L1862.95 175.884L1855.36 163.139L1867.88 155.854C1870.64 154.297 1873.06 154.816 1875.15 157.433C1876.08 158.588 1876.76 159.916 1877.17 161.339C1877.57 162.763 1877.69 164.252 1877.52 165.722M1973.97 119.403L1992.76 116.808L1997.91 165.248L2010.66 164.154L2005.73 115.793L2024.76 114.463L2023.97 104.064C2006.81 105.031 1989.71 106.781 1972.72 109.309L1973.96 119.403M1915.45 127.218C1910.34 132.529 1907.52 139.641 1907.62 147.012L1907.94 149.831C1908.77 158.019 1912.31 164.696 1918.58 169.861C1924.84 175.286 1931.96 177.553 1939.93 176.673C1947.36 176.088 1954.26 172.633 1959.18 167.042C1964.34 161.301 1966.93 154.636 1966.93 147.012V144.666C1966.66 140.766 1965.58 136.967 1963.74 133.516C1961.91 130.065 1959.37 127.039 1956.29 124.636C1953.33 122.102 1949.9 120.198 1946.18 119.042C1942.47 117.886 1938.56 117.502 1934.69 117.914C1927.33 118.467 1920.45 121.792 1915.45 127.218ZM1918.81 148.579V147.012C1918.68 144.644 1919.04 142.276 1919.84 140.047C1920.65 137.817 1921.89 135.772 1923.5 134.03C1925.08 132.245 1927 130.792 1929.15 129.757C1931.3 128.721 1933.64 128.122 1936.02 127.996C1941.23 127.692 1945.83 129.181 1949.8 132.463C1953.77 135.745 1956 139.996 1956.52 145.207V147.012C1956.52 151.861 1954.88 156.124 1951.59 159.767C1948.3 163.421 1944.16 165.508 1939.17 166.027C1936.72 166.229 1934.27 165.938 1931.94 165.173C1929.61 164.408 1927.47 163.183 1925.62 161.572C1921.45 158.121 1919.19 153.79 1918.81 148.579ZM2154.56 137.944C2154.18 130.117 2151.25 125.335 2145.71 123.621C2128.35 118.038 2118.53 114.993 2116.28 114.463L2099.39 170.651C2102.83 171.688 2107.35 172.839 2112.93 174.09L2118.33 153.508L2129.83 156.869L2132.65 180.034L2145.17 184.963L2141.49 158.436C2145.87 157.602 2149.27 155.098 2151.67 150.925C2153.9 146.91 2154.87 142.579 2154.56 137.944ZM2138.91 132.699C2141.51 133.376 2142.83 135.124 2142.83 137.944C2142.66 140.493 2141.7 142.816 2139.93 144.902C2138.06 147.192 2136.14 148.083 2134.22 147.564L2120.99 143.098L2125.14 128.549C2132.59 130.636 2137.2 132.023 2138.9 132.699M2070.76 106.41L2057.78 105.158L2029.67 163.128L2041.66 163.365L2047.05 153.282C2056.29 153.587 2064.53 154.263 2071.77 155.312L2075.21 166.263L2087.42 168.068L2070.76 106.41ZM2062.94 119.944L2069.98 145.207C2063.86 144.244 2057.7 143.619 2051.51 143.335L2062.94 119.944ZM2186.01 139.196L2173.02 133.478L2179.75 170.955L2167.01 195.372L2178.18 201.395L2190.94 176.899L2225.83 160.793C2220.76 157.861 2216.93 155.628 2214.33 154.06L2190.39 164.933L2186.01 139.196Z" fill="#FEBD11" fill-opacity="0.996"/>
</g>
<defs>
<clipPath id="clip0_191_103">
<rect width="2500" height="936" fill="white"/>
</clipPath>
</defs>
</svg>
