<svg width="2500" height="780" viewBox="0 0 2500 780" fill="none" xmlns="http://www.w3.org/2000/svg">
<g clip-path="url(#clip0_191_122)">
<path d="M1317.56 195.979C1317.56 224.09 1294.91 246.725 1266.8 246.725C1238.69 246.725 1216.05 224.09 1216.05 195.979C1216.05 167.868 1237.92 145.233 1266.8 145.233C1295.71 146.013 1317.56 168.656 1317.56 195.979ZM1108.31 298.266V310.761C1108.31 310.761 1084.11 279.515 1032.58 279.515C947.482 279.515 881.105 344.324 881.105 434.108C881.105 523.12 946.702 588.701 1032.58 588.701C1084.89 588.701 1108.31 556.691 1108.31 556.691V569.958C1108.31 576.206 1113 580.878 1119.24 580.878H1182.48V287.3H1119.24C1113 287.323 1108.31 292.799 1108.31 298.266ZM1108.31 486.422C1096.61 503.605 1073.18 518.44 1045.07 518.44C995.108 518.44 956.842 487.21 956.842 434.108C956.842 381.015 995.108 349.784 1045.07 349.784C1072.4 349.784 1097.39 365.399 1108.31 381.795V486.422ZM1229.33 287.323H1304.28V580.901H1229.33V287.323ZM2348.96 279.508C2297.42 279.508 2273.21 310.754 2273.21 310.754V146.013H2198.26V580.901H2261.51C2267.76 580.901 2272.43 575.434 2272.43 569.966V556.698C2272.43 556.698 2296.64 588.709 2348.16 588.709C2433.27 588.709 2499.64 523.143 2499.64 434.131C2499.64 345.12 2433.27 279.508 2348.96 279.508ZM2336.46 517.652C2307.56 517.652 2284.93 502.833 2273.21 485.642V381.015C2284.93 365.399 2309.91 349.004 2336.46 349.004C2386.43 349.004 2424.69 380.235 2424.69 433.328C2424.69 486.422 2386.44 517.652 2336.46 517.652ZM2159.23 406.793V581.681H2084.27V415.373C2084.27 366.975 2068.65 347.444 2026.52 347.444C2003.88 347.444 1980.45 359.159 1965.6 376.342V580.909H1890.66V287.331H1949.98C1956.23 287.331 1960.92 292.799 1960.92 298.266V310.761C1982.78 288.111 2011.66 279.515 2040.54 279.515C2073.34 279.515 2100.67 288.899 2122.54 307.634C2149.07 329.497 2159.23 357.6 2159.23 406.793ZM1708.72 279.508C1657.2 279.508 1632.99 310.754 1632.99 310.754V146.013H1558.04V580.901H1621.27C1627.52 580.901 1632.21 575.434 1632.21 569.966V556.698C1632.21 556.698 1656.42 588.709 1707.94 588.709C1793.05 588.709 1859.41 523.143 1859.41 434.131C1860.19 345.112 1793.83 279.508 1708.72 279.508ZM1696.22 517.652C1667.34 517.652 1644.7 502.833 1632.99 485.642V381.015C1644.7 365.399 1669.69 349.004 1696.22 349.004C1746.2 349.004 1784.45 380.235 1784.45 433.328C1784.45 486.422 1746.2 517.652 1696.22 517.652ZM1493.23 279.508C1515.86 279.508 1527.58 283.423 1527.58 283.423V352.904C1527.58 352.904 1465.12 331.821 1426.09 376.335V581.673H1351.12V287.323H1414.37C1420.62 287.323 1425.29 292.791 1425.29 298.258V310.754C1439.36 294.351 1469.81 279.508 1493.23 279.508ZM714.812 554.351C710.912 544.983 707.005 534.835 703.105 526.24C696.849 512.192 690.602 498.909 685.15 486.422L684.37 485.642C630.488 368.519 572.722 249.853 511.813 132.746L509.474 128.05C503.067 115.902 496.824 103.668 490.746 91.3519C482.931 77.2887 475.131 62.4689 462.636 48.4058C437.653 17.1752 401.734 -0.0078125 363.484 -0.0078125C324.438 -0.0078125 289.307 17.1753 263.552 46.8381C251.837 60.8857 243.242 75.7211 235.442 89.7842C229.348 102.092 223.105 114.326 216.714 126.482L214.367 131.178C154.245 248.285 95.6919 366.959 41.8183 484.074L41.0307 485.626C35.5708 498.137 29.3152 511.405 23.0676 525.444C19.1677 534.04 15.2677 543.407 11.3678 553.555C1.21241 582.438 -1.91548 609.768 2.00005 637.887C10.5877 696.448 49.6181 745.618 103.499 767.497C123.802 776.092 144.885 779.992 166.741 779.992C172.988 779.992 180.788 779.212 187.044 778.425C212.814 775.305 239.357 766.724 265.128 751.889C297.138 733.926 327.589 708.171 361.939 670.693C396.29 708.171 427.521 733.926 458.751 751.889C484.53 766.724 511.065 775.305 536.828 778.425C543.075 779.22 550.891 779.992 557.138 779.992C579.001 779.992 600.857 776.092 620.372 767.497C675.033 745.618 713.283 695.668 721.879 637.887C728.08 610.564 724.96 583.249 714.812 554.351ZM362.696 594.949C320.53 541.855 293.199 491.889 283.84 449.739C279.94 431.776 279.152 416.161 281.5 402.105C283.052 389.61 287.747 378.675 293.995 369.307C308.83 348.24 333.813 334.957 362.704 334.957C391.602 334.957 417.365 347.452 431.421 369.307C437.668 378.675 442.348 389.618 443.924 402.105C446.256 416.169 445.476 432.556 441.576 449.739C432.177 491.109 404.847 541.083 362.696 594.949ZM674.206 631.647C668.746 672.245 641.416 707.391 603.165 723.006C584.43 730.806 564.119 733.154 543.832 730.806C524.317 728.458 504.786 722.211 484.499 710.511C456.388 694.88 428.285 670.693 395.487 634.767C447.013 571.533 478.243 513.745 489.959 462.227C495.426 438.016 496.214 416.161 493.858 395.85C490.746 376.335 483.711 358.372 472.783 342.756C448.565 307.61 407.959 287.323 362.688 287.323C317.418 287.323 276.812 308.406 252.609 342.756C241.682 358.372 234.646 376.335 231.526 395.85C228.406 416.161 229.178 438.796 235.426 462.227C247.134 513.745 279.144 572.306 329.89 635.547C297.88 671.465 268.989 695.676 240.878 711.291C220.575 723.007 201.068 729.254 181.553 731.586C160.477 733.934 140.167 730.806 122.211 723.787C83.9609 708.171 56.6303 673.025 51.1704 632.427C48.8304 612.912 50.3826 593.396 58.1981 571.534C60.5302 563.718 64.4457 555.918 68.3456 546.551C73.8133 534.055 80.0454 520.772 86.3009 507.505L87.0888 505.953C140.954 389.61 198.728 270.935 258.849 155.388L261.189 150.693C267.444 138.993 273.692 126.498 279.932 114.783C286.18 102.287 293.199 90.5718 301.795 80.4164C318.19 61.6968 340.045 51.5336 364.256 51.5336C388.467 51.5336 410.322 61.6968 426.717 80.4164C435.313 90.5952 442.333 102.311 448.58 114.783C454.836 126.498 461.083 138.993 467.315 150.693L469.663 155.388C528.868 271.415 585.874 388.551 640.651 506.733V507.513C646.907 520.024 652.367 534.063 658.614 546.574C662.514 555.926 666.422 563.726 668.762 571.542C674.994 591.821 677.334 611.352 674.206 631.647Z" fill="#FF5A5F"/>
</g>
<defs>
<clipPath id="clip0_191_122">
<rect width="2500" height="780" fill="white"/>
</clipPath>
</defs>
</svg>
