<svg width="2500" height="594" viewBox="0 0 2500 594" fill="none" xmlns="http://www.w3.org/2000/svg">
<g clip-path="url(#clip0_191_118)">
<path d="M2195.65 199.965C2209.57 199.965 2221.02 192.728 2222.57 183.379L2236.31 27.9707C2236.31 12.6101 2218.32 0 2195.69 0C2173.09 0 2155.11 12.6101 2155.11 27.9734L2168.85 183.379C2170.36 192.725 2181.81 199.965 2195.7 199.965H2195.65ZM2111.66 248.506C2118.64 236.467 2118.11 222.936 2110.75 216.925L1983.02 127.321C1969.74 119.63 1949.82 128.887 1938.52 148.487C1927.18 168.063 1929.19 189.925 1942.44 197.619L2083.88 263.476C2092.72 266.753 2104.78 260.445 2111.7 248.415L2111.66 248.506ZM2279.72 248.423C2286.69 260.453 2298.68 266.764 2307.53 263.484L2448.97 197.628C2462.3 189.936 2464.2 168.071 2452.96 148.496C2441.6 128.915 2421.66 119.638 2408.41 127.329L2280.66 216.934C2273.36 222.936 2272.82 236.478 2279.76 248.514L2279.72 248.423ZM2195.65 394.093C2209.57 394.093 2221.02 401.269 2222.57 410.627L2236.31 566.013C2236.31 581.42 2218.32 594.003 2195.69 594.003C2173.09 594.003 2155.11 581.42 2155.11 566.013L2168.85 410.627C2170.36 401.269 2181.81 394.093 2195.7 394.093H2195.65ZM2279.72 345.541C2286.69 333.477 2298.68 327.222 2307.53 330.538L2448.97 396.35C2462.3 404.05 2464.2 425.935 2452.96 445.526C2441.6 465.043 2421.66 474.345 2408.41 466.665L2280.66 377.144C2273.36 371.094 2272.82 357.544 2279.76 345.516H2279.71M2111.66 345.525C2118.64 357.544 2118.11 371.094 2110.75 377.155L1983.02 466.674C1969.74 474.354 1949.82 465.051 1938.52 445.535C1927.18 425.943 1929.19 404.058 1942.44 396.359L2083.88 330.547C2092.72 327.23 2104.78 333.486 2111.7 345.552H2111.66" fill="#FDBB30"/>
<path d="M1389.92 376.862C1389.92 381.631 1389.49 386.55 1388.19 390.869C1382.77 408.811 1364.19 423.984 1340.95 423.984C1321.57 423.984 1306.18 412.976 1306.18 389.727C1306.18 354.146 1345.35 344.319 1389.93 344.566L1389.92 376.859V376.862ZM1459.84 314.854C1459.84 256.182 1434.77 204.554 1350.06 204.554C1306.58 204.554 1272.07 216.768 1253.23 227.654L1267.03 274.822C1284.24 263.953 1311.68 254.956 1337.65 254.956C1380.62 254.837 1387.65 279.289 1387.65 294.938V298.642C1293.99 298.504 1234.78 330.935 1234.78 397.003C1234.78 437.373 1264.94 475.184 1317.36 475.184C1349.57 475.184 1376.55 462.327 1392.69 441.712H1394.29C1394.29 441.712 1404.97 486.468 1463.95 469.344C1460.87 450.731 1459.86 430.862 1459.86 406.97L1459.85 314.854M0.472656 124.652C0.472656 124.652 61.6793 375.451 71.453 416.154C82.8542 463.663 103.402 481.153 162.618 469.344L200.834 313.859C210.525 275.219 217.01 247.669 223.254 208.403H224.341C228.724 248.085 234.943 275.338 242.918 313.986C242.918 313.986 258.467 384.578 266.444 421.643C274.429 458.697 296.655 482.065 354.664 469.344L445.73 124.641H372.227L341.123 273.68C332.76 317.044 325.18 350.968 319.33 390.631H318.29C312.975 351.317 306.207 318.777 297.714 276.516L265.357 124.641H188.759L154.128 272.687C144.327 317.688 135.136 354.01 129.313 392.353H128.254C122.276 356.247 114.318 310.579 105.707 267.039C105.707 267.039 85.1472 161.143 77.9161 124.641L0.472656 124.652ZM584.768 376.862C584.768 381.631 584.344 386.55 583.019 390.869C577.612 408.811 559.024 423.984 535.784 423.984C516.403 423.984 501.034 412.976 501.034 389.727C501.034 354.146 540.187 344.319 584.777 344.566L584.768 376.859V376.862ZM654.687 314.854C654.687 256.182 629.616 204.554 544.922 204.554C501.427 204.554 466.888 216.768 448.062 227.654L461.842 274.822C479.055 263.953 506.493 254.956 532.467 254.956C575.466 254.837 582.503 279.289 582.503 294.938V298.642C488.801 298.504 429.621 330.935 429.621 397.003C429.621 437.373 459.76 475.184 512.141 475.184C544.395 475.184 571.357 462.327 587.522 441.712H589.096C589.096 441.712 599.81 486.468 658.774 469.344C655.69 450.731 654.687 430.862 654.687 406.97V314.854ZM771.377 396.174V124.652H701.367V469.355H771.377V396.174ZM1687.23 124.652V378.933C1687.23 414.007 1693.85 438.554 1707.95 453.576C1720.3 466.71 1740.6 475.211 1764.94 475.211C1785.65 475.211 1806.01 471.26 1815.61 467.697L1814.71 413.004C1807.56 414.75 1799.36 416.165 1788.12 416.165C1764.26 416.165 1756.29 400.882 1756.29 369.409V272.116H1817.25V206.154H1756.29V124.652H1687.23ZM1506.53 210.402V469.355H1578.75V336.766C1578.75 329.599 1579.18 323.355 1580.31 317.643C1585.66 289.856 1606.9 272.116 1637.4 272.116C1645.77 272.116 1651.75 273.026 1658.24 273.946V206.154C1652.79 205.07 1649.1 204.563 1642.33 204.563C1615.38 204.563 1584.72 221.953 1571.85 259.256H1569.9V210.402H1506.53ZM820.398 210.402V469.355H890.76V317.505C890.76 310.379 891.597 302.843 894.065 296.31C899.896 281.022 914.125 263.116 936.831 263.116C965.237 263.116 978.501 287.119 978.501 321.761V469.336H1048.81V315.636C1048.81 308.837 1049.74 300.641 1051.75 294.647C1057.52 277.246 1072.85 263.097 1093.96 263.097C1122.74 263.097 1136.56 286.678 1136.56 327.453V469.328H1206.91V316.803C1206.91 236.376 1166.07 204.538 1119.96 204.538C1099.56 204.538 1083.44 209.648 1068.86 218.581C1056.62 226.123 1045.64 236.809 1036.06 250.855H1035.02C1023.9 222.948 997.741 204.552 963.651 204.552C919.856 204.552 900.173 226.753 888.234 245.579H887.186V210.394H820.398" fill="#1A75CF"/>
<path d="M2484.45 456.764H2485.51C2486.92 456.764 2487.83 456.182 2487.83 455.317C2487.83 454.332 2486.98 453.797 2485.67 453.797C2485.22 453.797 2484.76 453.889 2484.45 453.889V456.789V456.761L2484.45 456.764ZM2484.29 463.745H2480.55V451.56C2481.4 451.393 2483.38 451.096 2485.91 451.096C2488.66 451.096 2489.9 451.485 2490.8 452.095C2491.56 452.627 2492.12 453.536 2492.12 454.765C2492.12 456.015 2490.97 457.074 2489.27 457.537V457.693C2490.65 458.061 2491.41 459.065 2491.8 460.826C2492.18 462.584 2492.41 463.302 2492.65 463.754H2488.41C2488.04 463.302 2487.83 462.223 2487.58 461.147C2487.34 459.914 2486.75 459.295 2485.5 459.295H2484.28L2484.29 463.745ZM2485.83 447.589C2480.46 447.589 2476.41 451.964 2476.41 457.543C2476.41 462.977 2480.47 467.411 2485.98 467.411C2491.51 467.502 2495.57 462.98 2495.57 457.454C2495.57 451.953 2491.51 447.589 2485.92 447.589H2485.83ZM2486.08 444.281C2493.56 444.281 2499.53 450.176 2499.53 457.451C2499.53 464.813 2493.56 470.716 2485.97 470.716C2478.38 470.716 2472.34 464.805 2472.34 457.454C2472.34 450.176 2478.39 444.284 2485.97 444.284H2486.06" fill="#FDBB30"/>
</g>
<defs>
<clipPath id="clip0_191_118">
<rect width="2500" height="594" fill="white"/>
</clipPath>
</defs>
</svg>
