<svg width="2500" height="454" viewBox="0 0 2500 454" fill="none" xmlns="http://www.w3.org/2000/svg">
<path d="M2021.5 16.8951C2022.33 15.9333 2023.51 15.3413 2024.79 15.248C2025.21 15.2744 2025.62 15.3859 2026 15.5756C2026.38 15.7654 2026.71 16.0296 2026.98 16.3523C2027.26 16.675 2027.46 17.0496 2027.59 17.4535C2027.71 17.8574 2027.75 18.2823 2027.71 18.7026C2027.62 20.0352 2027.03 21.2852 2026.06 22.2034C1982.47 76.4089 1950.78 139.8 1950.78 227.718C1950.78 315.636 1982.63 377.698 2026.06 431.903C2027.03 432.822 2027.62 434.073 2027.71 435.407C2027.75 435.827 2027.71 436.252 2027.58 436.655C2027.46 437.059 2027.26 437.433 2026.98 437.755C2026.71 438.078 2026.37 438.342 2026 438.531C2025.62 438.721 2025.21 438.832 2024.79 438.858C2024.16 438.815 2023.54 438.647 2022.98 438.364C2022.41 438.082 2021.91 437.69 2021.5 437.211L1835.68 257.501C1830.96 253.96 1827.14 249.37 1824.5 244.095C1821.87 238.82 1820.49 233.004 1820.49 227.107C1820.49 221.211 1821.87 215.395 1824.5 210.12C1827.14 204.844 1830.96 200.255 1835.68 196.713L2021.5 16.9476" fill="#ED1C24"/>
<path d="M2164.25 1.6582C2091.52 1.6582 2063.12 104.761 2063.12 227.666C2063.12 350.567 2091.52 452.344 2164.25 452.344C2207.9 452.344 2245.11 426.752 2245.27 405.729C2245.25 403.318 2244.74 400.936 2243.78 398.728C2242.81 396.519 2241.4 394.53 2239.64 392.882C2218.94 372.92 2210.87 352.905 2210.76 335.278C2210.76 301.621 2239.86 276.56 2266.77 276.56C2303.94 276.56 2325.59 305.655 2325.59 343.294C2325.59 378.972 2310.36 408.755 2293.74 432.542C2293.12 433.428 2292.79 434.483 2292.78 435.564C2292.73 435.971 2292.76 436.383 2292.88 436.777C2292.99 437.171 2293.18 437.538 2293.44 437.856C2293.7 438.174 2294.02 438.436 2294.38 438.626C2294.74 438.816 2295.14 438.931 2295.55 438.963C2296.88 438.82 2298.12 438.175 2299 437.159L2484.81 257.449C2489.53 253.907 2493.36 249.318 2495.99 244.042C2498.63 238.767 2500 232.951 2500 227.053C2500 221.156 2498.63 215.34 2495.99 210.065C2493.36 204.789 2489.53 200.199 2484.81 196.658L2299 16.8952C2298.12 15.8789 2296.88 15.234 2295.55 15.0908C2293.85 15.0908 2292.79 16.63 2292.79 18.5423C2292.79 19.6237 2293.13 20.6784 2293.74 21.565C2310.26 45.352 2325.6 75.0796 2325.6 110.76C2325.6 148.399 2303.78 177.547 2266.77 177.547C2239.86 177.547 2210.66 152.434 2210.76 118.777C2210.76 101.202 2218.94 81.1868 2239.64 61.172C2241.4 59.5219 2242.81 57.5328 2243.77 55.3248C2244.74 53.1168 2245.25 50.7358 2245.27 48.3254C2245.27 27.0892 2208.11 1.71064 2164.25 1.71064M264.255 303.743C264.088 295.138 266.016 286.621 269.872 278.926C273.728 271.232 279.398 264.59 286.391 259.574C302.854 248.487 322.41 242.91 342.244 243.646C355.43 243.481 368.527 245.822 380.839 250.546V229.31C380.522 208.073 372.505 196.075 348.669 195.813C341.001 196.069 333.407 197.39 326.103 199.739C326.901 202.738 327.328 205.822 327.377 208.925C327.534 215.658 325.21 222.214 320.847 227.345C318.539 229.872 315.713 231.873 312.562 233.21C309.411 234.548 306.009 235.191 302.588 235.096C299.383 235.062 296.216 234.396 293.269 233.136C290.322 231.876 287.652 230.047 285.413 227.753C283.174 225.46 281.409 222.748 280.22 219.771C279.031 216.795 278.441 213.613 278.483 210.408C278.801 184.66 310.018 167.353 351.747 167.301C384.874 167.301 405.632 175.157 416.782 189.44C426.868 202.287 427.402 220.976 427.402 247.415V316.432C427.402 329.757 435.153 333.365 451.716 335.969H453.628V337.881C452.672 356.036 439.292 363.574 424.959 364.691H421.242C414.089 364.889 407.036 362.982 400.958 359.207C394.879 355.432 390.044 349.954 387.051 343.455C371.762 356.604 352.42 364.101 332.263 364.691C293.769 364.691 264.52 338.677 264.467 303.104M1446.26 355.718C1442.82 350.258 1440.48 344.182 1439.36 337.829C1437.45 340.003 1435.22 342.286 1431.77 345.577C1418.87 357.793 1401.75 364.563 1383.98 364.478C1374.89 364.777 1365.84 363.077 1357.48 359.5C1349.11 355.922 1341.63 350.554 1335.56 343.772C1318.74 323.653 1318.84 298.169 1318.84 261.961V227.08C1318.47 212.959 1314.06 208.126 1300.95 207.808C1299.18 207.821 1297.41 207.927 1295.64 208.126H1294.1L1293.52 206.639C1292.53 204.247 1292.01 201.689 1291.98 199.101C1292.4 182.22 1313.75 173.192 1326.28 170.592C1330.41 169.825 1334.6 169.364 1338.8 169.213C1343.01 168.899 1347.23 169.565 1351.14 171.158C1355.05 172.751 1358.53 175.229 1361.32 178.395C1366.14 185.234 1368.48 193.512 1367.95 201.861L1367.63 261.431C1367.63 283.41 1369.17 299.869 1374.06 310.485C1378.94 321.105 1386.43 325.935 1400.12 326.04C1406.06 326.425 1411.99 325.137 1417.24 322.322C1422.49 319.507 1426.84 315.278 1429.8 310.115C1435.43 299.357 1438.14 287.312 1437.66 275.181V226.972C1437.29 212.851 1432.83 208.021 1419.77 207.703C1417.99 207.714 1416.22 207.82 1414.46 208.021H1412.87L1412.28 206.534C1411.26 204.414 1410.61 202.133 1410.37 199.792C1410.8 182.908 1432.14 173.883 1444.72 171.283C1448.86 170.513 1453.05 170.051 1457.25 169.901C1461.46 169.592 1465.69 170.26 1469.61 171.853C1473.52 173.446 1477.01 175.922 1479.81 179.086C1484.68 185.906 1487.04 194.194 1486.5 202.552C1486.5 209.4 1485.86 221.506 1485.86 272.26C1485.86 293.496 1485.49 305.125 1485.49 308.573C1485.81 323.175 1490.8 329.809 1504.29 329.809H1510.45L1511.03 331.296C1512 333.619 1512.53 336.106 1512.57 338.624C1512.04 355.083 1490.64 361.717 1478.22 364.16C1474.34 364.883 1470.42 365.326 1466.49 365.487C1462.64 365.784 1458.79 365.114 1455.28 363.537C1451.76 361.961 1448.7 359.528 1446.37 356.462M769.198 269.447C768.336 242.512 777.837 216.271 795.743 196.131C804.795 186.71 815.711 179.281 827.796 174.317C839.881 169.353 852.868 166.963 865.928 167.301C876.786 166.87 887.612 168.76 897.682 172.843C907.752 176.926 916.836 183.109 924.329 190.98C936.402 204.305 943.115 221.627 943.174 239.608C943.329 248.854 941.137 257.988 936.802 266.156L936.219 267.217H819.209C821.173 301.352 842.888 325.244 880.743 325.617C889.598 325.677 898.368 323.891 906.494 320.371C914.62 316.852 921.923 311.677 927.937 305.177L929.211 303.582L930.858 304.804C933.229 306.557 935.112 308.887 936.329 311.573C937.547 314.258 938.057 317.21 937.814 320.149C937.814 339.846 914.613 365.061 863.485 365.061C850.995 365.062 838.63 362.582 827.106 357.764C815.583 352.946 805.131 345.887 796.359 336.996C787.586 328.105 780.667 317.56 776.004 305.973C771.341 294.386 769.027 281.988 769.195 269.5M1185.05 364.796C1172.47 364.952 1159.98 362.622 1148.3 357.94C1136.62 353.257 1125.98 346.313 1116.99 337.508C1107.73 328.044 1100.46 316.823 1095.6 304.505C1090.74 292.187 1088.39 279.021 1088.69 265.783C1088.52 252.846 1090.93 240.004 1095.78 228.012C1100.64 216.02 1107.85 205.121 1116.98 195.955C1126.11 186.789 1136.98 179.541 1148.96 174.638C1160.93 169.735 1173.76 167.276 1186.7 167.405C1199.49 167.062 1212.22 169.281 1224.13 173.931C1236.05 178.582 1246.91 185.57 1256.09 194.483C1270.16 208.392 1279.76 226.19 1283.65 245.592C1287.54 264.995 1285.54 285.117 1277.91 303.375C1270.28 321.634 1257.37 337.197 1240.84 348.065C1224.3 358.934 1204.89 364.613 1185.11 364.373L1185.05 364.796ZM1544.64 359.062C1536.46 356.835 1531.21 352.375 1531.26 345.632C1531.38 342.656 1532.14 339.74 1533.49 337.082L1533.91 336.126H1534.92C1539.57 335.213 1543.96 333.234 1547.72 330.343C1552.6 326.361 1554.46 320.784 1554.46 305.125V225.966C1554.09 212.694 1551.06 208.077 1540.02 207.756C1537.07 207.804 1534.14 208.124 1531.26 208.712L1529.56 209.03L1528.92 207.438C1527.84 204.754 1527.26 201.891 1527.22 198.996C1527.49 183.068 1544.74 175.104 1556.32 171.495C1560.54 170.146 1564.94 169.43 1569.38 169.37C1585.3 169.37 1593.69 180.681 1597.3 195.227C1607.6 178.29 1623.85 167.088 1640.25 167.035C1655.49 167.035 1670.78 177.016 1670.83 195.915C1671.11 202.913 1668.6 209.735 1663.87 214.897C1659.14 220.058 1652.56 223.14 1645.56 223.471C1639.92 223.601 1634.41 221.765 1629.97 218.278C1625.54 214.791 1622.45 209.869 1621.25 204.357C1612.33 207.278 1599.69 218.533 1599.58 257.449V305.226C1599.58 320.833 1601.81 326.463 1606.22 330.392C1611.52 333.379 1617.34 335.342 1623.37 336.178H1624.38L1624.8 337.135C1626.27 340.004 1627.1 343.154 1627.25 346.372C1627.25 352.742 1622.52 356.989 1614.88 359.219C1603.6 361.782 1592.03 362.836 1580.47 362.353C1568.44 362.805 1556.39 361.701 1544.64 359.062ZM976.569 359.059C968.393 356.832 963.084 352.316 963.084 345.574C963.184 342.618 963.926 339.719 965.259 337.079L965.684 336.123H966.745C971.439 335.209 975.867 333.25 979.7 330.392C984.425 326.358 986.338 320.781 986.443 305.174V201.226L958.621 200.27L958.146 199.048C956.796 195.966 956.073 192.645 956.021 189.28C956.004 187.002 956.452 184.744 957.339 182.645C958.226 180.546 959.532 178.65 961.178 177.074C962.824 175.498 964.774 174.276 966.91 173.481C969.045 172.686 971.32 172.335 973.596 172.452H985.647V160.984C985.647 133.27 990.955 117.503 997.858 106.935C1008.47 90.1069 1027.54 78.5342 1056.26 78.5342C1092.31 78.5342 1122.57 95.3103 1122.73 122.28C1122.84 125.659 1122.28 129.027 1121.07 132.184C1119.86 135.341 1118.03 138.225 1115.69 140.664C1113.35 143.104 1110.55 145.05 1107.44 146.388C1104.34 147.726 1100.99 148.429 1097.61 148.455C1091.22 148.362 1085.11 145.802 1080.56 141.31C1076.01 136.818 1073.37 130.742 1073.19 124.35C1073.26 119.486 1074.69 114.74 1077.33 110.655C1072.11 106.938 1065.79 105.069 1059.39 105.344C1048.19 105.344 1042.08 109.273 1038.15 115.695C1034.12 123.937 1032.29 133.084 1032.84 142.243V172.026H1080.63L1081.16 173.3C1082.51 176.454 1083.21 179.848 1083.23 183.281C1083.39 187.974 1081.75 192.552 1078.65 196.082C1075.56 199.612 1071.23 201.831 1066.56 202.287C1063.03 202.588 1059.48 202.712 1055.94 202.657C1047.97 202.657 1040.01 202.074 1034.28 201.969V304.751C1034.28 320.306 1036.88 325.988 1041.6 329.917C1046.33 333.847 1057.53 335.225 1061.09 335.703H1062.1L1062.52 336.712C1063.74 339.158 1064.41 341.838 1064.49 344.568C1064.49 351.684 1058.7 356.144 1049.94 358.531C1037.64 361.28 1025.05 362.441 1012.46 361.986C1000.37 362.445 988.267 361.337 976.461 358.692M643.055 358.692C634.93 356.462 629.675 352.001 629.73 345.259C629.872 342.303 630.631 339.41 631.957 336.764L632.383 335.808H633.444C638.138 334.894 642.565 332.934 646.398 330.074C651.124 326.04 653.088 320.466 653.141 304.859V225.966C652.771 212.694 649.637 208.077 638.647 207.756C635.704 207.804 632.772 208.124 629.887 208.712L628.191 209.03L627.552 207.438C626.416 204.711 625.821 201.79 625.8 198.836C626.066 182.908 643.32 175.104 655.001 171.495C659.154 170.153 663.483 169.437 667.847 169.37C683.775 169.37 692.27 180.52 695.986 194.854C706.603 178.13 722.852 167.088 739.042 166.983C754.066 166.983 769.516 176.908 769.568 195.81C769.841 202.842 767.31 209.696 762.531 214.862C757.752 220.029 751.117 223.087 744.085 223.363C738.468 223.495 732.982 221.655 728.579 218.164C724.177 214.673 721.135 209.751 719.983 204.252C710.958 207.225 698.161 218.428 698.004 257.341V305.125C698.004 320.732 700.338 326.361 705.011 330.287C710.273 333.321 716.082 335.287 722.105 336.074H723.114L723.592 337.03C725.01 339.873 725.807 342.985 725.93 346.16C725.93 352.532 721.205 356.779 713.506 359.062C702.194 361.643 690.59 362.714 678.997 362.248C666.959 362.704 654.913 361.598 643.16 358.957M485.589 358.957C477.465 356.727 472.264 352.267 472.264 345.524C472.381 342.571 473.122 339.676 474.439 337.03L474.865 336.074H475.926C480.619 335.16 485.047 333.201 488.88 330.343C493.606 326.305 495.57 320.732 495.623 305.125V225.966C495.197 212.694 492.119 208.077 481.077 207.756C478.134 207.804 475.201 208.124 472.317 208.712L470.617 209.03L469.979 207.438C468.843 204.711 468.248 201.79 468.227 198.836C468.492 182.908 485.746 175.104 497.427 171.495C501.563 170.156 505.875 169.44 510.221 169.37C526.149 169.37 534.644 180.52 538.36 194.801C548.977 178.13 565.226 167.088 581.419 166.98C596.44 166.98 611.942 176.912 611.998 195.862C612.271 202.895 609.741 209.749 604.962 214.917C600.183 220.084 593.547 223.142 586.514 223.418C580.899 223.54 575.417 221.697 571.016 218.207C566.615 214.717 563.571 209.8 562.41 204.304C553.385 207.278 540.59 218.48 540.482 257.396V305.174C540.482 320.784 542.765 326.413 547.49 330.343C552.751 333.382 558.562 335.349 564.587 336.129H565.648L566.074 337.085C567.512 339.923 568.326 343.036 568.461 346.215C568.461 352.588 563.683 356.835 555.985 359.117C544.673 361.698 533.069 362.769 521.476 362.3C509.439 362.754 497.394 361.648 485.642 359.009M1142.69 260.422C1142.69 312.185 1165.3 334.482 1187.39 334.747C1212.61 334.747 1230.87 312.447 1231.03 268.864C1231.03 246.086 1225.99 227.875 1217.76 215.772C1214.42 210.108 1209.69 205.395 1204.01 202.085C1198.33 198.775 1191.89 196.98 1185.32 196.871C1159.09 196.871 1142.85 220.602 1142.85 260.9M350.899 271.834C330.085 271.834 316.122 281.816 316.014 301.143C316.014 319.402 328.441 331.669 347.87 331.774C354.346 331.538 360.693 329.902 366.476 326.979C372.259 324.056 377.34 319.915 381.37 314.84V288.293C381.107 286.032 380.278 283.875 378.961 282.019C377.643 280.163 375.879 278.67 373.832 277.676C366.813 273.852 358.884 272.015 350.899 272.365M889.342 241.043C893.056 241.043 894.064 240.139 894.647 238.921C895.454 236.714 895.762 234.357 895.551 232.018C895.489 227.382 894.51 222.804 892.669 218.549C890.828 214.294 888.162 210.446 884.825 207.227C881.488 204.008 877.546 201.483 873.228 199.796C868.909 198.11 864.299 197.296 859.664 197.401C832.533 197.401 821.544 219.116 819.844 241.046H889.129L889.342 241.043ZM53.9098 330.768C31.0235 307.296 16.2676 273 16.2676 230.315C15.5488 193.616 28.838 158.021 53.4318 130.772C64.2658 118.856 77.4472 109.309 92.1477 102.731C106.848 96.1535 122.75 92.6871 138.855 92.5497C196.777 92.5497 237.655 133.162 237.867 168.204C237.867 186.945 225.977 201.439 209.941 201.491C202.273 201.611 194.849 198.8 189.183 193.632C186.282 190.816 184 187.425 182.483 183.677C180.966 179.93 180.246 175.907 180.371 171.865C180.458 167.677 181.37 163.548 183.055 159.712C184.74 155.877 187.165 152.412 190.192 149.516C182.336 136.083 167.259 125.467 143.632 125.467C123.565 125.467 106.468 136.083 94.4699 154.241C82.4715 172.396 75.0936 198.888 75.0936 230.056C75.0936 261.224 82.5795 287.337 95.1084 305.6C107.637 323.865 124.891 334.217 144.959 334.269C168.585 334.269 183.662 323.653 191.256 310.168C185.188 304.335 181.675 296.337 181.484 287.923C181.366 283.874 182.088 279.844 183.605 276.088C185.122 272.332 187.402 268.931 190.3 266.101C195.963 260.924 203.385 258.096 211.058 258.192C226.986 258.192 238.928 272.633 238.984 291.319C238.984 326.518 197.89 366.868 139.968 367.026C123.918 367.054 108.026 363.859 93.2347 357.63C78.4429 351.401 65.0525 342.266 53.8574 330.765M53.8574 330.765C30.9741 307.299 16.2152 273.003 16.2152 230.318C15.4964 193.619 28.7856 158.024 53.3793 130.775C64.2131 118.858 77.3943 109.311 92.0949 102.733C106.795 96.1544 122.698 92.6875 138.802 92.5497C196.721 92.5497 237.602 133.162 237.812 168.204C237.812 186.945 225.921 201.439 209.889 201.491C202.221 201.611 194.796 198.8 189.131 193.632C186.23 190.816 183.948 187.425 182.431 183.677C180.913 179.93 180.194 175.907 180.318 171.865C180.405 167.677 181.318 163.548 183.003 159.712C184.688 155.877 187.113 152.412 190.139 149.516C182.336 136.083 167.259 125.467 143.632 125.467C123.565 125.467 106.468 136.083 94.4699 154.241C82.4715 172.396 75.0936 198.888 75.0936 230.056C75.0936 261.224 82.5795 287.337 95.1084 305.6C107.637 323.865 124.891 334.217 144.959 334.269C168.585 334.269 183.662 323.653 191.256 310.168C185.188 304.335 181.675 296.337 181.484 287.923C181.366 283.874 182.088 279.844 183.605 276.088C185.122 272.332 187.402 268.931 190.3 266.101C195.963 260.924 203.385 258.096 211.058 258.192C226.986 258.192 238.928 272.633 238.984 291.319C238.984 326.518 197.89 366.868 139.968 367.026C123.918 367.054 108.026 363.859 93.2347 357.63C78.4429 351.401 65.0525 342.266 53.8574 330.765ZM53.8574 330.765C30.9741 307.299 16.2152 273.003 16.2152 230.318C15.4964 193.619 28.7856 158.024 53.3793 130.775C64.2131 118.858 77.3943 109.311 92.0949 102.733C106.795 96.1544 122.698 92.6875 138.802 92.5497C196.721 92.5497 237.602 133.162 237.812 168.204C237.812 186.945 225.921 201.439 209.889 201.491C202.221 201.611 194.796 198.8 189.131 193.632C186.23 190.816 183.948 187.425 182.431 183.677C180.913 179.93 180.194 175.907 180.318 171.865C180.405 167.677 181.318 163.548 183.003 159.712C184.688 155.877 187.113 152.412 190.139 149.516C182.336 136.083 167.259 125.467 143.632 125.467C123.565 125.467 106.468 136.083 94.4699 154.241C82.4715 172.396 75.0936 198.888 75.0936 230.056C75.0936 261.224 82.5795 287.337 95.1084 305.6C107.637 323.865 124.891 334.217 144.959 334.269C168.585 334.269 183.662 323.653 191.256 310.168C185.188 304.335 181.675 296.337 181.484 287.923C181.366 283.874 182.088 279.844 183.605 276.088C185.122 272.332 187.402 268.931 190.3 266.101C195.963 260.924 203.385 258.096 211.058 258.192C226.986 258.192 238.928 272.633 238.984 291.319C238.984 326.518 197.89 366.868 139.968 367.026C123.918 367.054 108.026 363.859 93.2347 357.63C78.4429 351.401 65.0525 342.266 53.8574 330.765Z" fill="#005BAB"/>
</svg>
