<svg width="2584" height="589" viewBox="0 0 2584 589" fill="none" xmlns="http://www.w3.org/2000/svg">
<g clip-path="url(#clip0_191_106)">
<path d="M0.5 589H593.434V0H0.5V589ZM380.619 45.0092C485.604 79.1541 561.111 177.709 561.37 294.371C561.628 409.222 487.414 507.518 380.619 543.991V45.0092ZM296.838 31.5581C315.714 31.5581 335.884 33.8863 352.692 37.5077C352.692 170.983 222.624 280.661 88.6773 280.661H32.5645C41.8735 143.823 155.909 31.5581 296.838 31.5581ZM88.6773 308.339C222.883 308.339 352.692 418.017 352.692 551.492C335.884 554.855 314.68 557.442 296.838 557.442C155.651 557.183 37.9947 444.66 32.5645 308.339H88.6773Z" fill="#002D62"/>
<path d="M792.027 346.104V309.114H915.372V261.776H792.027V192.969H923.388V145.891H741.604V344.552C741.604 394.735 763.066 429.138 813.49 436.122C814.524 436.381 815.559 436.381 816.334 436.381H817.369C822.54 436.899 827.712 437.416 833.401 437.416H926.75V390.337H833.66C817.627 389.82 792.027 382.06 792.027 346.104Z" fill="#002D62"/>
<path d="M962.693 283.247V437.158H1013.38V145.633H962.693V283.247Z" fill="#002D62"/>
<path d="M1158.18 219.613C1094.31 219.613 1046.47 263.329 1046.47 331.36V333.171C1046.47 399.65 1092.76 442.59 1159.48 442.59C1191.54 442.59 1221.54 433.795 1249.2 404.824L1218.69 375.335C1202.66 391.373 1186.89 399.65 1161.03 399.65C1123.53 399.65 1098.45 377.922 1096.9 344.294H1262.65C1263.43 336.016 1263.43 326.704 1263.43 326.704C1263.43 266.951 1221.54 219.613 1158.18 219.613ZM1097.93 308.597C1100.26 282.988 1126.38 262.294 1157.92 262.294C1187.66 262.294 1211.71 283.247 1211.71 308.597H1097.93Z" fill="#002D62"/>
<path d="M1405.65 264.625C1428.4 264.625 1445.21 272.903 1459.69 287.647L1490.98 255.313C1466.41 229.445 1437.19 218.84 1405.65 218.84C1341.26 218.84 1289.54 266.177 1289.54 330.846C1289.54 395.514 1341 443.11 1405.39 443.11C1436.94 443.11 1466.16 432.504 1490.72 406.378L1459.43 374.044C1444.95 388.788 1428.14 397.325 1405.39 397.325C1368.15 397.325 1339.71 369.129 1339.71 330.846C1339.97 292.821 1368.15 264.625 1405.65 264.625Z" fill="#002D62"/>
<path d="M1572.95 346.106V271.866H1618.98V226.081H1573.21V145.375H1522.53V349.21C1524.08 396.547 1545.54 428.881 1594.41 435.607C1595.45 435.866 1596.48 436.124 1597.52 436.124H1598.29C1603.46 436.642 1608.89 437.159 1614.32 437.159H1619.76V390.08H1614.58C1598.55 389.822 1572.95 382.061 1572.95 346.106Z" fill="#002D62"/>
<path d="M1711.55 257.639V226.34H1661.39V437.159H1711.55V326.188C1711.55 291.525 1733.79 269.538 1768.7 269.538C1776.72 269.538 1783.96 270.314 1789.65 271.608V222.977C1787.58 222.46 1780.08 221.684 1774.65 221.684C1744.39 221.942 1721.64 235.911 1711.55 257.639Z" fill="#002D62"/>
<path d="M1913.25 219.871C1848.86 219.871 1797.4 268.502 1797.4 331.618C1797.4 394.734 1848.6 443.365 1913.25 443.365C1977.12 443.365 2029.09 394.734 2029.09 331.618C2029.09 268.502 1977.38 219.871 1913.25 219.871ZM1913.25 397.839C1875.75 397.839 1847.57 368.867 1847.57 331.618C1847.57 294.369 1875.75 265.398 1913.25 265.398C1950.48 265.398 1978.93 294.369 1978.93 331.618C1978.93 368.867 1950.48 397.839 1913.25 397.839Z" fill="#002D62"/>
<path d="M2060.12 278.075V436.9H2110.81V145.375H2060.12V278.075Z" fill="#002D62"/>
<path d="M2293.11 348.693C2293.11 382.062 2273.46 396.289 2246.82 396.289C2220.45 396.289 2200.54 382.062 2200.54 349.211V226.082H2149.6V353.349C2149.6 413.62 2193.81 442.592 2246.31 442.592C2299.32 442.592 2344.05 413.362 2344.05 352.315V287.388V226.341H2293.11V348.693Z" fill="#002D62"/>
<path d="M2535.14 369.645L2503.34 325.412L2542.9 272.125L2576.52 226.34H2521.44L2475.41 289.456L2429.12 226.34H2374.3L2405.59 269.021L2447.48 325.929L2403.53 386.718L2367.06 437.418H2421.37L2475.15 362.92L2529.2 437.418H2583.5L2535.14 369.645Z" fill="#002D62"/>
</g>
<defs>
<clipPath id="clip0_191_106">
<rect width="2583" height="589" fill="white" transform="translate(0.5)"/>
</clipPath>
</defs>
</svg>
