<svg xmlns="http://www.w3.org/2000/svg"  viewBox="0 0 100 100" width="100px" height="100px"><path fill="#40a6dd" d="M90.255,69.323c-0.215-0.431-0.129-1.004,0.286-1.248c0.962-0.563,0.018-2.389-0.716-4.042 l-10.857-22.46c-2.129-4.797-5.485-8.948-9.73-12.035l-1.186-0.862c-2.202-1.602-4.692-2.765-7.334-3.425h-1v-5 c0-2.761-2.239-5-5-5h-8c-3.3,0-6,2.7-6,6v4h-1l-0.115,0.029c-2.472,0.618-4.86,1.529-7.115,2.713 c-6.434,3.378-11.327,9.1-14.057,15.835L9.391,64.123C8.717,65.786,8.61,67.579,9.87,68.1c0.459,0.19,0.716,0.68,0.595,1.162 l-0.436,1.745c-0.158,0.631,0.32,1.242,0.97,1.242h5.978c0.44,0,0.829-0.288,0.957-0.71l0.807-2.661 c0.106-0.351,0.397-0.614,0.757-0.683c0.871-0.167,1.639-0.718,2.072-1.518L32.718,46.25l-3,33h4v3c0,1.105,0.895,2,2,2h27 c1.105,0,2-0.895,2-2v-3h4l-2-33l11.358,20.359c0.327,0.643,1.274,1.134,2.211,1.405c0.263,0.076,0.478,0.266,0.6,0.512 l1.557,3.165c0.168,0.342,0.516,0.559,0.897,0.559H90.1c0.743,0,1.227-0.782,0.894-1.447L90.255,69.323z"/><path fill="#6475a5" d="M42.708,17.473c0,0,8.745,3.894,15.415,0.032c0,0-1.277-2.234-3.096-1.979 c-1.819,0.255-9.606-0.064-9.606-0.064L42.708,17.473z"/><path fill="#78cdd4" d="M41.686,17.218c0,0,6.702,4.34,17.266,0.319l0.543,8.074c0,0-10.851,4.691-18.479-0.415 L41.686,17.218z"/><path fill="#6475a5" d="M62.761,84.463H35.803c-1.105,0-2-0.895-2-2v-3.745h30.957v3.745 C64.761,83.567,63.865,84.463,62.761,84.463z"/><path fill="#6475a5" d="M17.165,72.144h-6.17c-0.552,0-1-0.448-1-1v-2.255h8.17v2.255 C18.165,71.696,17.717,72.144,17.165,72.144z"/><path fill="#6475a5" d="M89.74,72.144h-6.745c-0.552,0-1-0.448-1-1v-2.255h8.745v2.255 C90.74,71.696,90.292,72.144,89.74,72.144z"/><polygon fill="#78cdd4" points="66.218,56.75 58.218,50.75 48.218,58.75 38.218,50.75 32.218,56.75 31.218,69.75 38.218,62.75 48.218,70.75 58.218,62.75 67.218,70.75"/><path fill="#c7dff1" d="M66.24,56.838l-8-6l-10,8l-10-8l-6,6l-0.247,6.872l6.295-6.271l9.331,7.469 c0.366,0.293,0.887,0.292,1.252-0.002l9.332-7.515l8.904,6.894L66.24,56.838z"/><path fill="#78cdd4" d="M18.309,43.837l-0.462-0.222l-4.919,10.972l0.473,0.198c0.734,0.309,1.515,0.465,2.318,0.465 c3.309,0,6-2.691,6-6C21.718,46.954,20.38,44.829,18.309,43.837z"/><path fill="#78cdd4" d="M79.965,43.615l-0.462,0.222c-2.071,0.992-3.409,3.117-3.409,5.413c0,3.309,2.691,6,6,6 c0.804,0,1.584-0.156,2.318-0.465l0.473-0.198L79.965,43.615z"/><g><path fill="#1f212b" d="M91.889,70.355l-0.74-1.479l-0.008,0.004c1.52-0.993,0.566-3.106-0.204-4.812L79.882,41.167 c-2.198-4.952-5.675-9.253-10.056-12.438l-1.186-0.862c-2.318-1.686-4.902-2.893-7.68-3.586c-0.079-0.021-0.161-0.03-0.242-0.03v-4 c0-3.309-2.691-6-6-6h-8c-3.86,0-7,3.141-7,7v3c-0.083,0-0.165,0.011-0.246,0.03L39.36,24.31c-2.543,0.635-5.012,1.575-7.338,2.796 c-6.466,3.396-11.623,9.201-14.506,16.313L8.464,63.747c-1.023,2.524-0.622,4.597,1.03,5.272l-0.436,1.746 c-0.15,0.602-0.018,1.227,0.364,1.715c0.382,0.489,0.957,0.77,1.577,0.77h5.978c0.887,0,1.656-0.57,1.914-1.42l0.773-2.58h0.554 c0.252,0,0.451-0.189,0.486-0.431c0.73-0.362,1.345-0.927,1.743-1.661l8.838-16.196l-2.563,28.197 c-0.025,0.28,0.068,0.558,0.258,0.766c0.189,0.207,0.458,0.325,0.738,0.325h3v2c0,1.654,1.346,3,3,3h27c1.654,0,3-1.346,3-3v-2h3 c0.276,0,0.539-0.114,0.728-0.314c0.189-0.201,0.287-0.471,0.27-0.746l-1.734-28.622l9.202,16.494 c0.516,1.015,1.747,1.566,2.563,1.831c0.052,0.173,0.192,0.3,0.371,0.338l1.429,2.904c0.339,0.688,1.027,1.116,1.794,1.116H90.1 c0.698,0,1.334-0.354,1.702-0.948C92.168,71.708,92.201,70.98,91.889,70.355z M41.718,21.25c0-1.089,0.359-2.09,0.953-2.912 l0.527,0.192c0.229,0.084,0.464,0.144,0.696,0.22h-0.176v7.375c-0.675-0.202-1.352-0.439-2.03-0.728 c0.008-0.05,0.03-0.095,0.03-0.147V21.25z M44.718,19.01c0.662,0.187,1.328,0.347,2,0.468v7.309c-0.659-0.093-1.324-0.209-2-0.374 V19.01z M47.718,19.615c0.665,0.087,1.332,0.142,2,0.165v7.228c-0.651-0.004-1.316-0.03-2-0.094V19.615z M50.718,19.798 c0.668-0.009,1.335-0.05,2-0.123v7.166c-0.638,0.074-1.301,0.134-2,0.159V19.798z M53.718,19.531c0.672-0.106,1.338-0.245,2-0.417 v7.209c-0.601,0.141-1.277,0.273-2,0.385V19.531z M56.718,18.837c0.498-0.156,0.994-0.322,1.482-0.516 c0.32,0.575,0.518,1.226,0.518,1.929v5c0,0.054,0.022,0.1,0.031,0.151c-0.35,0.138-1.044,0.392-2.031,0.666V18.837z M54.718,16.25 c1.128,0,2.143,0.473,2.871,1.226c-4.519,1.725-9.491,1.778-14.048,0.115l-0.142-0.052c0.885-0.792,2.041-1.289,3.319-1.289H54.718 z M16.977,71.25h-5.978l0.436-1.745c0.021-0.085,0.03-0.17,0.04-0.255h6.108L16.977,71.25z M32.178,63.242 c0.014,0.001,0.027,0.008,0.041,0.008c0.128,0,0.256-0.049,0.354-0.146l1.414-1.414c0.195-0.195,0.195-0.512,0-0.707 s-0.512-0.195-0.707,0l-0.985,0.985l0.459-5.045l5.503-5.503l9.65,7.721c0.091,0.073,0.202,0.109,0.313,0.109 s0.221-0.036,0.313-0.109l9.697-7.758l7.69,5.768c0.139,0.105,0.311,0.117,0.462,0.063l0.334,5.511l-0.373-0.29 c-0.218-0.171-0.532-0.131-0.702,0.088c-0.169,0.218-0.13,0.531,0.087,0.701l1.068,0.831l0.362,5.972l-8.607-7.651 c-0.181-0.162-0.454-0.169-0.645-0.017l-9.688,7.75l-9.688-7.75c-0.199-0.158-0.485-0.143-0.666,0.037l-6.171,6.171L32.178,63.242z M34.718,82.25v-3h2v4h-1C35.167,83.25,34.718,82.802,34.718,82.25z M39.718,79.25v4h-2v-4H39.718z M42.718,79.25v4h-2v-4H42.718z M45.718,79.25v4h-2v-4H45.718z M48.718,79.25v4h-2v-4H48.718z M51.718,79.25v4h-2v-4H51.718z M54.718,79.25v4h-2v-4H54.718z M57.718,79.25v4h-2v-4H57.718z M60.718,79.25v4h-2v-4H60.718z M63.718,82.25c0,0.552-0.449,1-1,1h-1v-4h2V82.25z M66.218,78.25 h-1.5h-31h-1.5h-1.405l0.74-8.134c0.006-0.005,0.013-0.007,0.019-0.013l6.684-6.684l9.65,7.721c0.183,0.146,0.442,0.146,0.625,0 l9.67-7.736l8.685,7.72c0.095,0.084,0.214,0.126,0.332,0.126c0.004,0,0.009-0.003,0.013-0.003l0.424,7.003H66.218z M78.949,66.121 L67.592,45.763c-0.228-0.406-0.707-0.604-1.154-0.473c-0.448,0.131-0.746,0.555-0.717,1.021l0.599,9.89l-7.802-5.851 c-0.182-0.136-0.434-0.131-0.612,0.01l-9.688,7.75l-9.688-7.75c-0.199-0.158-0.485-0.143-0.666,0.037l-4.971,4.971l0.821-9.027 c0.042-0.473-0.251-0.91-0.705-1.048c-0.456-0.139-0.941,0.063-1.169,0.478L20.69,66.202c-0.287,0.53-0.79,0.898-1.381,1.012 c-0.601,0.117-1.092,0.506-1.369,1.036h-6.606c-0.198-0.469-0.572-0.863-1.081-1.073c-0.498-0.206-0.47-1.357,0.052-2.646 l4.19-9.41c0.336,0.07,0.678,0.116,1.025,0.127c0.005,0,0.011,0,0.017,0c0.269,0,0.49-0.213,0.499-0.483 c0.009-0.276-0.207-0.507-0.483-0.517c-0.215-0.007-0.424-0.044-0.634-0.078l3.959-8.89c0.028,0.005,0.052,0.026,0.08,0.026 c0.154,0,0.307-0.071,0.404-0.205c0.16-0.219,0.113-0.522-0.098-0.687l0.094-0.21c2.719-6.707,7.547-12.149,13.595-15.325 c2.183-1.146,4.5-2.029,6.891-2.627h0.875c0.099,0,0.188-0.03,0.278-0.056c0.007,0.004,0.011,0.01,0.019,0.013 c3.097,1.376,6.173,1.835,8.9,1.835c5.286,0,9.258-1.725,9.506-1.835c0.007-0.003,0.011-0.01,0.019-0.013 c0.09,0.027,0.18,0.056,0.278,0.056h0.875c2.483,0.636,4.794,1.724,6.871,3.233l1.186,0.862c4.097,2.979,7.349,7.002,9.418,11.662 l1.008,2.084c-0.173,0.101-0.353,0.19-0.516,0.308c-0.223,0.163-0.272,0.476-0.109,0.699c0.098,0.134,0.25,0.205,0.404,0.205 c0.102,0,0.205-0.031,0.294-0.096c0.115-0.084,0.242-0.143,0.363-0.217l4.318,8.933c-0.503,0.187-1.028,0.305-1.57,0.322 c-0.276,0.01-0.493,0.24-0.483,0.517c0.009,0.271,0.23,0.483,0.499,0.483c0.006,0,0.011,0,0.017,0 c0.683-0.023,1.344-0.17,1.976-0.416l4.645,9.608l0.203,0.451c0.308,0.684,0.869,1.927,0.839,2.373 c-0.356,0.235-0.598,0.589-0.721,0.986h-7.368l-0.081-0.165c-0.248-0.504-0.692-0.88-1.22-1.032 C79.687,66.8,79.096,66.409,78.949,66.121z M83.341,71.25l-0.984-2h6.831c0.036,0.176,0.088,0.352,0.172,0.521l0.74,1.479H83.341z M90.254,69.323l0.886-0.494c-0.002,0.012-0.018,0.045-0.05,0.076L90.254,69.323z"/><path fill="#1f212b" d="M60.991,59.54c0.091,0.071,0.2,0.105,0.307,0.105c0.149,0,0.297-0.066,0.395-0.193 c0.17-0.218,0.13-0.532-0.087-0.701l-1.579-1.228c-0.218-0.17-0.533-0.129-0.702,0.088c-0.17,0.218-0.13,0.532,0.087,0.701 L60.991,59.54z"/><path fill="#1f212b" d="M56.581,58.561c0.109,0,0.22-0.036,0.312-0.109l1.563-1.249c0.215-0.173,0.25-0.487,0.078-0.703 c-0.172-0.215-0.487-0.249-0.703-0.078l-1.562,1.249c-0.215,0.173-0.25,0.487-0.078,0.703 C56.288,58.496,56.434,58.561,56.581,58.561z"/><path fill="#1f212b" d="M53.457,61.06c0.109,0,0.22-0.036,0.312-0.109l1.562-1.25c0.215-0.173,0.25-0.487,0.078-0.703 c-0.173-0.215-0.487-0.249-0.703-0.078l-1.562,1.25c-0.215,0.173-0.25,0.487-0.078,0.703C53.165,60.995,53.31,61.06,53.457,61.06z"/><path fill="#1f212b" d="M64.149,61.996c0.091,0.071,0.199,0.105,0.306,0.105c0.149,0,0.297-0.066,0.395-0.193 c0.17-0.218,0.13-0.532-0.088-0.701l-1.579-1.228c-0.218-0.17-0.533-0.129-0.701,0.088c-0.17,0.218-0.13,0.532,0.088,0.701 L64.149,61.996z"/><path fill="#1f212b" d="M38.229,57.446l0.026-0.026l0.833,0.667c0.092,0.073,0.203,0.109,0.312,0.109 c0.147,0,0.292-0.064,0.391-0.188c0.172-0.216,0.137-0.53-0.078-0.703l-1.183-0.946c-0.199-0.158-0.485-0.145-0.666,0.037 l-0.343,0.343c-0.195,0.195-0.195,0.512,0,0.707C37.716,57.642,38.033,57.642,38.229,57.446z"/><path fill="#1f212b" d="M42.212,60.586c0.092,0.073,0.203,0.109,0.312,0.109c0.147,0,0.292-0.064,0.391-0.188 c0.173-0.216,0.138-0.53-0.078-0.703l-1.562-1.25c-0.216-0.171-0.53-0.136-0.703,0.078c-0.173,0.216-0.138,0.53,0.078,0.703 L42.212,60.586z"/><path fill="#1f212b" d="M50.333,63.558c0.109,0,0.22-0.036,0.312-0.109l1.563-1.249c0.215-0.173,0.25-0.487,0.078-0.703 c-0.172-0.215-0.487-0.25-0.703-0.078l-1.562,1.249c-0.215,0.173-0.25,0.487-0.078,0.703 C50.041,63.493,50.187,63.558,50.333,63.558z"/><path fill="#1f212b" d="M35.047,60.422c0.128,0,0.256-0.049,0.354-0.146l1.414-1.414c0.195-0.195,0.195-0.512,0-0.707 s-0.512-0.195-0.707,0l-1.414,1.414c-0.195,0.195-0.195,0.512,0,0.707C34.791,60.373,34.919,60.422,35.047,60.422z"/><path fill="#1f212b" d="M45.335,63.084c0.092,0.073,0.203,0.109,0.312,0.109c0.147,0,0.292-0.064,0.391-0.188 c0.172-0.216,0.137-0.53-0.078-0.703l-1.562-1.249c-0.216-0.171-0.53-0.136-0.703,0.078c-0.172,0.216-0.137,0.53,0.078,0.703 L45.335,63.084z"/><path fill="#1f212b" d="M47.906,65.141c0.091,0.073,0.202,0.109,0.313,0.109s0.221-0.036,0.313-0.109l0.553-0.442 c0.215-0.173,0.25-0.487,0.078-0.703c-0.173-0.215-0.487-0.25-0.703-0.078l-0.241,0.192l-0.696-0.557 c-0.216-0.171-0.53-0.136-0.703,0.078c-0.172,0.216-0.137,0.53,0.078,0.703L47.906,65.141z"/><path fill="#1f212b" d="M21.231,49.577c-0.273-0.038-0.527,0.146-0.568,0.42c-0.09,0.603-0.288,1.177-0.588,1.708 c-0.136,0.24-0.051,0.546,0.189,0.682c0.078,0.044,0.162,0.064,0.246,0.064c0.174,0,0.344-0.092,0.436-0.254 c0.36-0.639,0.598-1.329,0.706-2.052C21.693,49.872,21.505,49.617,21.231,49.577z"/><path fill="#1f212b" d="M21.094,48.583c0.035,0,0.07-0.004,0.106-0.012c0.27-0.058,0.441-0.324,0.383-0.594 c-0.154-0.714-0.436-1.387-0.836-2.002c-0.15-0.231-0.46-0.297-0.692-0.146s-0.297,0.46-0.146,0.691 c0.334,0.514,0.568,1.074,0.697,1.668C20.656,48.423,20.863,48.583,21.094,48.583z"/><path fill="#1f212b" d="M18.916,53.095c-0.469,0.391-0.999,0.689-1.575,0.887c-0.261,0.089-0.4,0.373-0.311,0.635 c0.071,0.207,0.265,0.338,0.473,0.338c0.054,0,0.108-0.009,0.162-0.027c0.692-0.236,1.328-0.595,1.891-1.064 c0.212-0.177,0.241-0.492,0.063-0.704C19.444,52.948,19.129,52.917,18.916,53.095z"/><path fill="#1f212b" d="M80.781,54.616c0.089-0.262-0.05-0.546-0.311-0.635c-0.576-0.197-1.106-0.496-1.575-0.887 c-0.213-0.178-0.528-0.146-0.704,0.063c-0.177,0.212-0.148,0.527,0.063,0.704c0.563,0.47,1.199,0.828,1.891,1.064 c0.054,0.019,0.108,0.027,0.162,0.027C80.516,54.954,80.71,54.823,80.781,54.616z"/><path fill="#1f212b" d="M77.757,45.829c-0.232-0.151-0.542-0.086-0.692,0.146c-0.401,0.615-0.682,1.288-0.836,2.002 c-0.058,0.27,0.113,0.536,0.383,0.594c0.036,0.008,0.071,0.012,0.106,0.012c0.23,0,0.438-0.16,0.488-0.395 c0.128-0.594,0.363-1.154,0.697-1.668C78.054,46.289,77.988,45.979,77.757,45.829z"/><path fill="#1f212b" d="M77.148,49.997c-0.041-0.273-0.293-0.458-0.568-0.42c-0.273,0.04-0.461,0.295-0.421,0.568 c0.108,0.723,0.346,1.413,0.706,2.052c0.092,0.162,0.262,0.254,0.436,0.254c0.083,0,0.168-0.021,0.246-0.064 c0.24-0.136,0.325-0.441,0.189-0.682C77.436,51.174,77.238,50.6,77.148,49.997z"/></g></svg>